<svg width="161" height="152" viewBox="0 0 161 152" fill="none" xmlns="http://www.w3.org/2000/svg">
<path d="M73.0313 23.2289C69.5578 26.0611 66.3771 29.2344 63.5369 32.7012C62.707 33.7132 61.9011 34.7638 61.3583 35.9543C61.135 36.3838 61.0254 36.8633 61.04 37.3472C61.0928 37.732 61.2176 38.1034 61.408 38.442C63.0382 41.7027 65.5374 44.4496 68.63 46.3798C69.0716 46.6539 69.5831 46.9189 70.0854 46.7882C70.3905 46.6801 70.6654 46.501 70.8877 46.2657L77.462 40.2894C78.382 39.4577 79.302 38.6058 79.9276 37.5294C80.5532 36.453 80.8034 35.1024 80.3048 33.9708" fill="white"/>
<path d="M72.9246 23.1222C70.2364 25.2552 67.7292 27.6067 65.4284 30.1528C64.2779 31.3833 63.202 32.6816 62.2066 34.0407C61.7137 34.7089 61.3069 35.4365 60.9959 36.2064C60.83 36.6026 60.7667 37.0342 60.8119 37.4613C60.8867 37.8719 61.0304 38.267 61.2369 38.6297C62.6057 41.3342 64.5698 43.6933 66.9814 45.5297C67.5929 46.029 68.2531 46.4654 68.952 46.8324C69.2947 47.0188 69.6881 47.0904 70.0744 47.0366C70.4412 46.9351 70.7733 46.7353 71.0349 46.4589C72.4149 45.2138 73.7912 43.9632 75.1639 42.7071L77.232 40.8285C77.8466 40.2765 78.474 39.7245 79.0389 39.1136C80.0877 37.982 80.9599 36.5137 80.7961 34.911C80.7576 34.5457 80.6639 34.1884 80.5183 33.8512C80.3987 33.5678 79.9865 33.8126 80.1043 34.0922C80.7152 35.5256 80.0546 37.1338 79.1401 38.269C78.6469 38.8542 78.1106 39.4016 77.5357 39.9066C76.8929 40.4942 76.2495 41.0787 75.6055 41.6602L71.712 45.2022L70.7295 46.0964C70.4461 46.3522 70.1462 46.6134 69.7396 46.5803C69.3329 46.5472 68.9704 46.3043 68.6356 46.0946C68.3007 45.8848 68.032 45.7008 67.7395 45.4929C65.3907 43.8126 63.4429 41.6335 62.0355 39.1118C61.6675 38.4549 61.1652 37.6913 61.2995 36.9038C61.4338 36.1162 61.8993 35.371 62.3225 34.7178C63.1947 33.371 64.2766 32.1418 65.3364 30.9422C67.4783 28.52 69.7778 26.2421 72.2199 24.1231C72.5253 23.8582 72.832 23.595 73.1399 23.3338C73.2889 23.2068 73.0755 23.0007 72.9246 23.1203V23.1222Z" fill="black"/>
<path d="M77.2431 54.5255C67.0412 83.1368 60.4563 112.911 57.6416 143.156C57.568 143.946 57.4907 144.755 57.13 145.46C56.67 146.365 55.8034 146.982 55.141 147.751C54.4786 148.52 54.0168 149.661 54.5356 150.533C57.1539 151.107 59.8327 151.358 62.512 151.28C64.6888 151.216 67.1617 150.752 68.3007 148.888C68.8858 147.935 69.0036 146.779 69.1305 145.67C70.1009 137.138 72.352 128.801 75.8079 120.94C78.5679 114.673 82.143 108.487 82.4503 101.646C82.5368 99.7011 82.3528 97.7471 82.5349 95.8095C82.936 91.5315 85.0686 87.6455 86.8405 83.7318C90.9216 74.736 93.2051 64.1505 89.3576 55.048" fill="white"/>
<path d="M57.5441 143.994C57.4877 144.504 57.3459 145.002 57.1245 145.466C56.6627 146.371 55.7979 146.987 55.1355 147.756C54.4731 148.526 54.0113 149.666 54.5301 150.538C57.1504 151.111 59.8311 151.36 62.5121 151.28C64.6888 151.216 67.1617 150.752 68.3007 148.888C68.8858 147.935 69.0036 146.779 69.1305 145.67C69.1416 145.576 69.1545 145.486 69.1655 145.388C65.1801 145.718 61.0695 145.6 57.5441 143.994Z" fill="#006CDC"/>
<path d="M77.0921 54.4831C74.6302 61.3525 72.3707 68.2862 70.3135 75.2843C68.2626 82.3168 66.4281 89.4063 64.8101 96.5529C63.2007 103.668 61.8048 110.825 60.6223 118.024C59.4398 125.223 58.4799 132.445 57.7427 139.688C57.6494 140.602 57.5593 141.516 57.4722 142.431C57.3912 143.293 57.3728 144.2 57.0711 145.018C56.5191 146.5 54.9054 147.215 54.3111 148.675C54.1813 148.954 54.109 149.256 54.0986 149.564C54.0882 149.871 54.1398 150.178 54.2503 150.465C54.3975 150.8 54.5852 150.785 54.9385 150.857C55.3967 150.949 55.8585 151.041 56.3185 151.107C58.1234 151.392 59.9487 151.528 61.7759 151.514C64.3023 151.493 67.5885 151.157 68.7514 148.511C69.4027 147.039 69.3862 145.261 69.6033 143.681C69.8486 141.929 70.1449 140.187 70.492 138.453C71.9125 131.408 74.2879 124.67 77.3147 118.16C78.7389 115.104 80.2072 112.053 81.2615 108.846C81.8022 107.239 82.2018 105.588 82.4557 103.911C82.7041 102.189 82.7023 100.468 82.682 98.7314C82.6618 96.8804 82.7593 95.0698 83.2083 93.2685C83.6484 91.6005 84.2294 89.973 84.9452 88.4035C86.3123 85.2958 87.8414 82.28 88.9767 79.0729C91.1663 72.885 92.3439 66.0954 91.0154 59.5873C90.6882 58.0108 90.2075 56.4701 89.5802 54.9873C89.4679 54.7168 89.0282 54.8346 89.1349 55.1087C91.7109 61.2709 91.4791 68.1617 89.8709 74.5373C89.0332 77.765 87.9062 80.9106 86.5037 83.936C85.1292 86.9462 83.5744 89.9197 82.774 93.1507C82.3854 94.7936 82.2037 96.4786 82.2331 98.1666C82.2423 99.9293 82.3011 101.681 82.0803 103.434C81.6535 106.811 80.4795 110.046 79.1363 113.152C77.806 116.221 76.2954 119.209 75.0055 122.296C73.6622 125.506 72.5168 128.794 71.5758 132.144C70.6278 135.521 69.8867 138.952 69.3567 142.419C69.1065 144.056 69.0384 145.758 68.6686 147.372C68.3098 148.932 67.3033 150.001 65.8055 150.535C64.4255 151.026 62.9388 151.087 61.4871 151.087C59.6365 151.082 57.7898 150.919 55.9671 150.599C55.6377 150.54 54.9422 150.526 54.7011 150.297C54.4233 150.032 54.5355 149.431 54.6331 149.107C54.8759 148.308 55.4666 147.725 56.0462 147.157C56.5467 146.665 57.0582 146.157 57.3655 145.515C57.693 144.834 57.785 144.084 57.8586 143.339C58.5596 136.192 59.4023 129.062 60.4879 121.965C61.5625 114.906 62.8444 107.882 64.3335 100.895C65.8276 93.8824 67.5253 86.9168 69.4267 79.9984C71.3145 73.1168 73.3998 66.2898 75.6827 59.5174C76.2445 57.8626 76.8167 56.2127 77.3994 54.5678C77.4675 54.3838 77.1639 54.2936 77.0958 54.4831H77.0921Z" fill="black"/>
<path d="M81.4106 55.2449C81.4106 74.874 89.3374 101.87 90.0752 104.156C94.0662 116.55 98.2908 128.928 104.179 140.542C105.196 142.551 106.297 144.737 105.868 146.949C105.684 147.845 105.281 148.814 105.715 149.617C107.566 153.035 115.416 146.054 116.424 144.19C118.214 140.878 115.784 137.66 114.181 134.806C108.109 124.037 113.261 106.838 107.349 95.9825C105.794 93.1268 103.59 90.4809 103.134 87.2627C102.766 84.6775 103.584 82.096 104.1 79.5347C105.94 70.4396 102.273 57.7473 96.7857 50.2658" fill="white"/>
<path d="M116.424 144.19C117.344 142.503 117.16 140.844 116.544 139.245C115.062 139.901 113.513 140.394 111.925 140.717C109.605 141.221 107.235 141.515 104.933 142.063C105.656 143.633 106.197 145.282 105.875 146.945C105.691 147.841 105.288 148.811 105.723 149.613C107.566 153.035 115.416 146.054 116.424 144.19Z" fill="#006CDC"/>
<path d="M84.1467 79.6414C85.046 86.2052 86.4291 92.6935 88.2849 99.0534C89.7348 104.056 91.4 109.01 93.0799 113.939C95.5897 121.299 98.3221 128.6 101.575 135.669C102.385 137.428 103.227 139.171 104.102 140.897C104.961 142.597 105.888 144.463 105.712 146.417C105.596 147.69 104.792 149.135 105.877 150.211C106.372 150.702 107.075 150.822 107.747 150.741C109.662 150.513 111.45 149.193 112.921 148.038C113.728 147.405 114.495 146.723 115.217 145.996C115.734 145.51 116.191 144.964 116.577 144.369C118.317 141.425 116.446 138.222 114.934 135.655C113.442 133.115 112.411 130.332 111.887 127.434C110.729 121.266 111.081 114.934 110.639 108.701C110.429 105.757 110.065 102.776 109.211 99.933C108.823 98.61 108.308 97.3277 107.673 96.1039C106.882 94.5951 105.908 93.193 105.068 91.7137C104.186 90.1607 103.441 88.4955 103.301 86.6941C103.139 84.6389 103.669 82.6167 104.103 80.6221C104.753 77.6638 104.953 74.6241 104.694 71.6061C104.162 65.3268 102.313 59.2302 99.266 53.714C98.5845 52.4735 97.8249 51.2775 96.9918 50.1333C96.8078 49.8868 96.3974 50.1333 96.5796 50.3744C100.175 55.3001 102.457 61.258 103.614 67.2196C104.227 70.2218 104.451 73.2903 104.28 76.3497C104.155 77.9102 103.909 79.4587 103.544 80.9809C103.132 82.8209 102.696 84.7051 102.826 86.6058C103.06 90.0098 105.229 92.7459 106.863 95.5961C108.31 98.1169 109.134 100.901 109.623 103.755C110.65 109.801 110.334 115.98 110.783 122.076C110.994 124.955 111.36 127.849 112.19 130.622C112.573 131.924 113.077 133.187 113.695 134.394C114.431 135.824 115.364 137.154 116.036 138.626C116.759 140.209 117.14 141.973 116.437 143.635C116.135 144.349 115.635 144.923 115.103 145.475C113.67 146.994 112.023 148.295 110.214 149.339C109.11 149.963 106.786 151.122 105.927 149.534C105.476 148.7 105.978 147.694 106.111 146.836C106.228 146.046 106.194 145.241 106.013 144.463C105.627 142.702 104.7 141.103 103.903 139.506C100.464 132.604 97.5934 125.434 95.0009 118.175C93.0382 112.671 91.1816 107.127 89.4312 101.545C87.7301 96.1493 86.3616 90.6546 85.3335 85.0915C84.995 83.2515 84.6975 81.4078 84.4411 79.5605C84.4135 79.3599 84.1099 79.4445 84.1375 79.6433L84.1467 79.6414Z" fill="black"/>
<path d="M92.7322 18.1818C89.1497 18.248 85.5562 18.4522 82.0602 19.2545C78.5642 20.0567 75.1602 21.479 72.4094 23.768C71.057 24.8959 69.8334 26.2851 69.3495 27.9761C69.0275 29.0948 69.0403 30.2816 69.1213 31.4445C69.3105 34.1745 69.8523 36.8686 70.7331 39.4595C72.0211 43.2444 74.0562 46.9336 73.9605 50.9319C73.9311 52.1482 73.8427 53.6551 74.8952 54.2623C75.3295 54.5126 75.9643 54.6303 76.0581 55.1198C76.117 55.4252 75.9127 55.7196 75.8741 56.0306C75.7821 56.8346 76.7481 57.3001 77.5301 57.4897C83.9137 59.028 90.5721 59.0223 96.9531 57.4731C98.5227 57.0904 100.342 56.3213 100.589 54.7241C100.721 53.852 100.326 52.9118 100.683 52.1058C100.878 51.6624 101.27 51.3441 101.584 50.9761C102.613 49.7838 102.828 48.1057 102.889 46.5325C102.996 43.7927 102.771 41.0511 102.497 38.3224C101.929 32.6552 101.058 26.7746 97.8363 22.077C96.6937 20.421 96.2521 18.5553 92.7267 18.1744" fill="white"/>
<path d="M92.7322 18.018C88.1506 18.0916 83.4991 18.386 79.1162 19.8709C77.1342 20.5266 75.2534 21.4555 73.5281 22.6309C71.9071 23.7533 70.3118 25.1462 69.458 26.9604C68.4994 28.9936 68.768 31.3635 69.0587 33.5218C69.3691 35.8133 69.9243 38.0648 70.7147 40.2378C71.4599 42.2968 72.3708 44.3006 72.9908 46.4037C73.3112 47.4351 73.5282 48.4959 73.6385 49.5703C73.725 50.5142 73.6183 51.46 73.6955 52.4039C73.7618 53.197 73.99 54.025 74.7039 54.4721C75.0093 54.6561 75.4399 54.7315 75.6956 55.002C75.7496 55.0685 75.7836 55.1489 75.7937 55.2339C75.8038 55.3189 75.7895 55.405 75.7527 55.4822C75.6596 55.7168 75.6092 55.966 75.6036 56.2182C75.657 57.0646 76.5715 57.5062 77.2836 57.7123C78.381 58.0047 79.495 58.2315 80.6195 58.3913C85.1938 59.1191 89.8572 59.0825 94.4195 58.2827C95.491 58.1118 96.5514 57.8777 97.5953 57.5817C98.4106 57.363 99.1739 56.9833 99.8401 56.4648C100.163 56.2065 100.424 55.8789 100.603 55.5063C100.782 55.1337 100.876 54.7255 100.876 54.312C100.876 53.7894 100.758 53.2706 100.797 52.7462C100.836 52.2218 101.141 51.8409 101.498 51.4582C102.159 50.7641 102.625 49.9078 102.848 48.976C103.065 47.9824 103.171 46.9679 103.165 45.951C103.217 43.5278 103.027 41.1082 102.797 38.6996C102.389 34.5467 101.877 30.3294 100.363 26.4102C99.9963 25.4514 99.566 24.5183 99.0747 23.6171C98.6515 22.8462 98.1418 22.1359 97.6781 21.3889C97.0083 20.3106 96.357 19.2526 95.1923 18.6491C94.4208 18.2803 93.5882 18.0564 92.7359 17.9886C92.4838 17.961 92.4856 18.3566 92.7359 18.386C93.5878 18.4568 94.4151 18.7076 95.1628 19.122C95.683 19.4415 96.131 19.8657 96.4784 20.3677C96.8207 20.8461 97.0985 21.365 97.4095 21.8636C97.886 22.6309 98.3883 23.3742 98.8097 24.1746C100.703 27.7737 101.491 31.8419 101.982 35.8421C102.251 38.0317 102.471 40.2342 102.595 42.4366C102.661 43.6216 102.69 44.8102 102.663 45.997C102.671 46.9877 102.562 47.9758 102.339 48.941C102.225 49.3845 102.055 49.8113 101.831 50.2106C101.565 50.618 101.257 50.9961 100.911 51.3386C100.59 51.6735 100.378 52.0984 100.304 52.5566C100.236 53.0608 100.33 53.5631 100.357 54.0654C100.392 54.4648 100.323 54.8663 100.158 55.2317C99.9935 55.597 99.7375 55.9139 99.4151 56.152C98.7692 56.6525 97.9707 56.9432 97.1905 57.1566C95.0314 57.7209 92.8253 58.0867 90.5996 58.2496C88.3689 58.4308 86.1272 58.4308 83.8965 58.2496C82.7606 58.1588 81.6309 58.0202 80.5072 57.8338C79.9552 57.7418 79.3922 57.6369 78.8383 57.521C78.3239 57.4244 77.8148 57.3016 77.313 57.153C76.9403 57.0553 76.5997 56.8618 76.3249 56.5918C75.9955 56.2238 76.2182 55.8797 76.3028 55.4657C76.346 55.2786 76.3307 55.0829 76.259 54.9048C76.1872 54.7268 76.0625 54.5751 75.9017 54.4702C75.5926 54.2531 75.208 54.174 74.9026 53.9495C74.277 53.4877 74.2199 52.5879 74.2107 51.8758C74.1997 50.908 74.2439 49.9586 74.1169 48.9926C73.8391 46.8894 73.1012 44.8894 72.3303 42.9206C71.5409 40.8966 70.7497 38.8965 70.229 36.7897C69.9558 35.6888 69.7421 34.574 69.5887 33.4501C69.4229 32.3316 69.3387 31.2025 69.3366 30.0718C69.3229 29.0105 69.552 27.9601 70.0064 27.0009C70.4492 26.1489 71.0285 25.3751 71.7212 24.7101C73.1771 23.317 74.8525 22.1732 76.68 21.3245C80.6268 19.4146 85.0226 18.7264 89.3631 18.4743C90.4874 18.4081 91.6135 18.3713 92.7396 18.3455C92.783 18.3455 92.8246 18.3283 92.8553 18.2976C92.886 18.2668 92.9033 18.2252 92.9033 18.1818C92.9033 18.1383 92.886 18.0967 92.8553 18.066C92.8246 18.0353 92.783 18.018 92.7396 18.018H92.7322Z" fill="black"/>
<path d="M72.0229 5.93104C70.9833 7.75816 71.9217 10.3342 70.6337 12.003C70.498 12.1456 70.3923 12.3139 70.3227 12.498C70.2215 12.8844 70.5067 13.1862 70.8747 13.3941C71.5868 13.7897 71.5482 14.8109 71.6383 15.5138C71.734 16.2498 71.7708 17.0078 71.9107 17.7383C72.0321 18.3658 72.2934 19.0006 72.8067 19.3833C73.2295 19.6725 73.7361 19.8135 74.2475 19.7844C75.0111 19.7678 75.7305 19.4808 76.4923 19.4422C76.7499 19.4293 77.0443 19.4219 77.2283 19.5912C77.348 19.7167 77.4324 19.8716 77.473 20.0402C77.7796 20.9577 78.0734 21.8777 78.3543 22.8002C78.4037 23.0486 78.5261 23.2767 78.7058 23.4552C78.956 23.6558 79.3111 23.6392 79.6258 23.5914C80.8246 23.4143 81.9762 23.0005 83.0136 22.374C84.051 21.7476 84.9534 20.9211 85.6683 19.9426C85.8154 19.7791 85.8989 19.5682 85.9039 19.3483C85.8564 19.1373 85.7453 18.9459 85.5855 18.8C84.2699 17.3059 83.3886 15.4126 82.9304 13.4824C82.1944 10.4133 83.5947 6.3984 81.2321 3.82608C80.6666 3.21524 79.9286 2.79102 79.1161 2.60984C77.7404 2.32307 76.3107 2.45049 75.0074 2.976C73.8592 3.43048 72.3762 4.31552 72.1867 5.6624" fill="white"/>
<path d="M71.885 5.85009C71.4195 6.67073 71.3201 7.61649 71.2612 8.54201C71.2023 9.46753 71.2005 10.4703 70.7902 11.3296C70.6925 11.5323 70.5728 11.7236 70.4332 11.9C70.2559 12.0803 70.1356 12.3087 70.0873 12.5569C70.0303 13.0334 70.3983 13.3573 70.7663 13.5836C71.1343 13.8099 71.2483 14.2 71.3183 14.5993C71.39 15.039 71.4176 15.4917 71.4655 15.937C71.5777 16.9858 71.5759 18.2038 72.2235 19.0944C72.8933 20.0144 74.0304 20.1064 75.07 19.9114C75.622 19.8065 76.2108 19.617 76.7886 19.6611C77.1143 19.685 77.2007 19.9003 77.2946 20.18C77.3988 20.4965 77.5025 20.813 77.6055 21.1294C77.7895 21.7274 77.9735 22.331 78.1686 22.929C78.3158 23.3963 78.566 23.7698 79.0886 23.8361C79.5633 23.8986 80.0877 23.7625 80.5477 23.6521C81.0313 23.5319 81.5044 23.3731 81.9627 23.1774C82.8849 22.7848 83.7389 22.2482 84.4927 21.5876C84.8708 21.2576 85.2204 20.8963 85.5378 20.5075C85.8211 20.1598 86.2499 19.7108 86.1266 19.2195C86.0517 18.9977 85.9256 18.7966 85.7586 18.6326C85.5746 18.4118 85.3906 18.1854 85.2066 17.9518C84.884 17.5105 84.5931 17.0469 84.3363 16.5644C83.8211 15.5926 83.431 14.5595 83.1752 13.4898C82.9856 12.5937 82.901 11.6786 82.9231 10.7629C82.9231 8.94497 83.0832 7.01113 82.3932 5.28521C82.0601 4.40292 81.4785 3.63601 80.7188 3.07721C79.8448 2.45713 78.7629 2.22897 77.7049 2.23449C76.6304 2.25021 75.5706 2.48697 74.5916 2.93001C73.8023 3.28145 73.0258 3.75985 72.5106 4.46641C72.2587 4.80511 72.0944 5.20077 72.0322 5.61825C72.0046 5.82617 72.3192 5.92369 72.3579 5.70657C72.5069 4.85649 73.1711 4.23457 73.8685 3.78929C74.6452 3.30014 75.5063 2.96006 76.4077 2.78649C77.4583 2.57857 78.6157 2.58041 79.6295 2.97049C80.5043 3.31639 81.2319 3.95497 81.6885 4.77737C82.568 6.30825 82.5055 8.17585 82.4834 9.88153C82.4527 10.7679 82.4773 11.6552 82.557 12.5385C82.6741 13.4646 82.9059 14.3725 83.247 15.2414C83.6095 16.2123 84.0909 17.1344 84.6803 17.9867C84.811 18.1707 84.9471 18.3547 85.087 18.5387C85.2876 18.7451 85.4722 18.9665 85.639 19.2011C85.7751 19.4422 85.639 19.639 85.4991 19.8396C85.35 20.047 85.1903 20.2466 85.0207 20.4376C83.7499 21.875 82.052 22.8674 80.176 23.2694C79.808 23.3503 79.1401 23.5582 78.8218 23.2528C78.647 23.0835 78.5955 22.7928 78.5274 22.5702C78.4391 22.2794 78.3495 21.99 78.2587 21.7017C78.0747 21.1239 77.8907 20.5462 77.7067 19.9739C77.543 19.4992 77.278 19.2232 76.7554 19.2048C75.6827 19.168 74.6358 19.7568 73.5631 19.4753C72.4903 19.1938 72.1831 18.0861 72.0561 17.0943C71.988 16.5423 71.942 16.0014 71.8721 15.4567C71.8424 15.0693 71.7933 14.6837 71.7249 14.3012C71.6587 13.9251 71.4698 13.5815 71.1876 13.3242C70.8803 13.0739 70.3099 12.8642 70.6264 12.3747C70.746 12.1907 70.8969 12.0251 71.011 11.8338C71.1185 11.6491 71.209 11.4552 71.2815 11.2542C71.4231 10.8424 71.5133 10.4148 71.5501 9.98089C71.6458 9.07745 71.5961 8.15929 71.7507 7.26137C71.818 6.82499 71.9573 6.40281 72.1628 6.01201C72.1827 5.9755 72.1875 5.93271 72.1764 5.89267C72.1653 5.85263 72.139 5.81849 72.1032 5.79746C72.0673 5.77644 72.0247 5.77017 71.9843 5.77999C71.944 5.78981 71.909 5.81495 71.8868 5.85009H71.885Z" fill="black"/>
<path d="M73.0865 10.5789L73.0607 10.6102L73.0791 10.5936L73.0442 10.6212C73.0502 10.6159 73.057 10.6115 73.0644 10.6083L73.0221 10.6267H73.0387C73.0595 10.6203 73.0798 10.6123 73.0994 10.6028L73.0534 10.6212L73.0865 10.612H73.035C73.0472 10.6102 73.0596 10.6102 73.0718 10.612H73.0184C73.0312 10.6137 73.0436 10.6174 73.0552 10.623L73.0074 10.6028C73.0214 10.6079 73.0345 10.6154 73.046 10.6249L73.0055 10.5936C73.0181 10.605 73.0298 10.6173 73.0405 10.6304L73.0074 10.5881C73.0238 10.6086 73.0368 10.6316 73.046 10.6562L73.0258 10.6046C73.0333 10.6235 73.0382 10.6433 73.0405 10.6635V10.6065C73.0442 10.6265 73.0442 10.6471 73.0405 10.6672L73.0497 10.6083C73.0463 10.6233 73.042 10.638 73.0368 10.6525L73.0589 10.5991C73.0538 10.6101 73.0477 10.6206 73.0405 10.6304L73.0755 10.5862L73.0534 10.6083L73.0975 10.5734C73.0911 10.5791 73.0836 10.5835 73.0755 10.5862L73.1288 10.5623C73.1197 10.564 73.1103 10.564 73.1012 10.5623H73.1601H73.127H73.1877L73.1527 10.5531L73.2061 10.5752L73.1803 10.5605L73.2263 10.5954C73.2193 10.5903 73.2131 10.5841 73.2079 10.577L73.2429 10.623L73.1895 10.5513L73.2227 10.5973L73.2135 10.5807L73.2355 10.6304C73.2249 10.5957 73.2059 10.5642 73.1803 10.5384L73.138 10.5053C73.1148 10.4905 73.0882 10.4816 73.0607 10.4795C73.0425 10.4759 73.0238 10.4759 73.0055 10.4795C72.9868 10.4798 72.9684 10.4849 72.9522 10.4942C72.9347 10.4994 72.9189 10.5089 72.9062 10.5218C72.8835 10.5363 72.865 10.5567 72.8528 10.5807C72.8282 10.6219 72.8148 10.6689 72.8142 10.7169C72.8128 10.751 72.8187 10.785 72.8314 10.8167C72.844 10.8484 72.8633 10.8771 72.8878 10.9009C72.9234 10.939 72.9673 10.9684 73.016 10.9869C73.0648 11.0054 73.1172 11.0124 73.1691 11.0074C73.221 11.0025 73.2711 10.9856 73.3155 10.9582C73.3599 10.9308 73.3974 10.8936 73.4251 10.8494C73.4417 10.821 73.4546 10.7908 73.4637 10.7592V10.7334C73.4687 10.7067 73.4718 10.6796 73.4729 10.6525C73.4728 10.5834 73.4564 10.5153 73.4251 10.4538C73.4196 10.4389 73.4115 10.4252 73.4011 10.4133C73.3815 10.3823 73.358 10.3538 73.3312 10.3286C73.2789 10.2821 73.2156 10.2498 73.1472 10.2348C73.0975 10.2238 73.046 10.2238 72.9963 10.2348C72.9637 10.2413 72.9325 10.2537 72.9043 10.2716C72.8657 10.2967 72.8343 10.3314 72.8133 10.3725C72.7923 10.4135 72.7825 10.4593 72.7847 10.5053V10.5476C72.7898 10.5672 72.7992 10.5855 72.8123 10.601C72.833 10.6293 72.8629 10.6495 72.897 10.658C72.9247 10.6653 72.9539 10.6653 72.9816 10.658C73.0206 10.6454 73.0543 10.6201 73.0773 10.5862L73.0865 10.5789Z" fill="black"/>
<path d="M72.4738 9.48593C72.5341 9.50151 72.5974 9.50151 72.6578 9.48593H72.6927H72.6614C72.6614 9.48593 72.713 9.48593 72.7203 9.48593H72.7461C72.7038 9.48593 72.6927 9.48593 72.713 9.48593C72.7493 9.50007 72.7881 9.50695 72.827 9.50617C72.8657 9.50617 72.9062 9.50617 72.9448 9.51721L72.8583 9.50617C72.9611 9.51983 73.063 9.53887 73.1638 9.56321L73.0754 9.52457H73.0902C73.1786 9.57187 73.2812 9.5856 73.379 9.56321C73.4338 9.54834 73.4844 9.521 73.5269 9.48334C73.5693 9.44567 73.6025 9.3987 73.6238 9.34609C73.6458 9.2971 73.6569 9.24388 73.6562 9.19016C73.6555 9.13644 73.6431 9.08352 73.6198 9.03512C73.5965 8.98672 73.5628 8.94402 73.5212 8.91C73.4796 8.87599 73.4311 8.8515 73.379 8.83825C73.0974 8.78675 72.8088 8.78675 72.5271 8.83825C72.4793 8.85058 72.4345 8.87242 72.3953 8.90245C72.3561 8.93248 72.3233 8.97009 72.299 9.01305C72.2574 9.08678 72.2413 9.17211 72.253 9.25593C72.264 9.34623 72.3074 9.42949 72.375 9.49035C72.4426 9.55122 72.53 9.58558 72.621 9.58712C72.8777 9.56473 73.1361 9.56905 73.3919 9.60001L73.2907 9.58712C73.4195 9.60552 73.5465 9.63865 73.6753 9.64969L73.4821 8.93577L73.4048 8.97993C73.3466 9.01477 73.3001 9.06601 73.2709 9.12723C73.2418 9.18844 73.2314 9.2569 73.241 9.32401C73.25 9.39055 73.2781 9.45306 73.3219 9.504C73.3656 9.55493 73.4232 9.59211 73.4876 9.61105L73.5741 9.63681C73.6672 9.65117 73.7623 9.63088 73.8414 9.57978C73.9205 9.52868 73.9781 9.45033 74.0033 9.35958C74.0285 9.26882 74.0195 9.17198 73.978 9.08742C73.9366 9.00286 73.8655 8.93646 73.7783 8.90081C73.6662 8.87274 73.5515 8.85549 73.4361 8.84929C73.3441 8.83825 73.2521 8.82721 73.1619 8.82169C72.9818 8.80881 72.8011 8.80881 72.621 8.82169L72.7222 9.57241H72.7442L72.6412 9.58529C72.7462 9.57176 72.8518 9.56377 72.9577 9.56137C73.0626 9.56137 73.1674 9.57241 73.2723 9.57793L73.173 8.84193H73.1564L73.2539 8.82905C73.0884 8.82851 72.9234 8.84828 72.7626 8.88793C72.7258 8.89867 72.6901 8.91284 72.6559 8.93025L72.5952 8.97809C72.5805 8.99097 72.5786 8.99281 72.5952 8.97809C72.6099 8.96521 72.5952 8.97809 72.5805 8.97809L72.5363 9.00569C72.4572 9.06273 72.3523 9.14001 72.3302 9.24489C72.3176 9.29559 72.3248 9.34922 72.3505 9.39474C72.3762 9.44027 72.4183 9.47422 72.4682 9.48961L72.4738 9.48593Z" fill="black"/>
<path d="M78.9745 9.99193C78.8738 10.0181 78.7823 10.0717 78.7102 10.1467C78.6381 10.2217 78.5882 10.3153 78.566 10.417C78.52 10.5353 78.52 10.6666 78.566 10.785C78.5863 10.8223 78.616 10.8537 78.6521 10.8759C78.6883 10.8982 78.7297 10.9106 78.7721 10.9119C78.8197 10.9133 78.8664 10.8994 78.9055 10.8722C78.9446 10.8451 78.9739 10.8061 78.9892 10.761C79.0037 10.711 79.0011 10.6576 78.9817 10.6093C78.9624 10.561 78.9275 10.5205 78.8825 10.4942C78.8322 10.4665 78.7745 10.4551 78.7175 10.4617C78.6604 10.4683 78.6068 10.4925 78.5642 10.531C78.5424 10.5558 78.5277 10.5859 78.5215 10.6183C78.5154 10.6506 78.518 10.6841 78.5292 10.715C78.5435 10.7459 78.566 10.7722 78.5942 10.791C78.6225 10.8098 78.6554 10.8205 78.6893 10.8218C78.7217 10.82 78.7538 10.8144 78.785 10.8052H78.739H78.7684H78.7206H78.739L78.6967 10.7868L78.7096 10.796L78.6728 10.7666L78.6856 10.7776L78.6562 10.7426C78.657 10.7469 78.657 10.7513 78.6562 10.7555L78.6378 10.7132C78.6388 10.7181 78.6388 10.7231 78.6378 10.7279V10.6801V10.6322C78.6388 10.6371 78.6388 10.6421 78.6378 10.647L78.6562 10.6046C78.6681 10.5863 78.6838 10.5706 78.7022 10.5586L78.7445 10.5421H78.7316H78.7795H78.7592H78.8071H78.7868L78.8291 10.5586C78.8071 10.5476 78.8512 10.5807 78.8568 10.5881L78.8751 10.6304C78.8741 10.6219 78.8741 10.6132 78.8751 10.6046V10.6525C78.8672 10.5914 78.8672 10.5296 78.8751 10.4685V10.5145C78.8806 10.4745 78.8899 10.435 78.9028 10.3967C78.902 10.3906 78.902 10.3844 78.9028 10.3783L78.8936 10.3986C78.8936 10.3986 78.8936 10.3802 78.9046 10.3728C78.9133 10.3562 78.9231 10.3402 78.934 10.325C78.9211 10.3397 78.9543 10.2955 78.934 10.325L78.9524 10.3047L78.9708 10.2863L78.9929 10.2734C79.0224 10.2569 78.9745 10.2734 78.9929 10.2734L79.0205 10.2642C79.0395 10.2592 79.0573 10.2503 79.0728 10.2383C79.0883 10.2262 79.1012 10.2111 79.1108 10.194C79.1204 10.1768 79.1265 10.1579 79.1287 10.1384C79.1309 10.1189 79.1291 10.0991 79.1236 10.0802C79.112 10.0427 79.0864 10.0111 79.0522 9.99187C79.0179 9.97268 78.9776 9.96743 78.9396 9.97721L78.9745 9.99193Z" fill="black"/>
<path d="M73.3331 15.1899C73.529 15.1199 73.7146 15.024 73.8851 14.9047C73.9741 14.8425 74.0579 14.773 74.1353 14.6968C74.2202 14.6226 74.2923 14.5349 74.3488 14.4374C74.3636 14.4179 74.3745 14.3957 74.3808 14.3721C74.3871 14.3484 74.3886 14.3237 74.3854 14.2995C74.3821 14.2752 74.3742 14.2518 74.3619 14.2307C74.3496 14.2095 74.3333 14.1909 74.3138 14.1761C74.2944 14.1612 74.2722 14.1503 74.2485 14.1441C74.2248 14.1378 74.2002 14.1362 74.1759 14.1394C74.1517 14.1427 74.1283 14.1507 74.1071 14.163C74.0859 14.1753 74.0674 14.1916 74.0525 14.211C74.0269 14.2352 74.0035 14.2617 73.9826 14.2902L73.9605 14.3178C73.99 14.2828 73.9458 14.3398 73.9605 14.3178C73.9311 14.3527 73.8998 14.3914 73.8685 14.4263C73.806 14.4962 73.7379 14.5606 73.6698 14.6232L73.5668 14.7097C73.5833 14.6986 73.5318 14.7391 73.5668 14.7097L73.5373 14.7318L73.4803 14.7722C73.4013 14.8265 73.319 14.8757 73.2337 14.9194C73.2019 14.9363 73.1775 14.9644 73.1655 14.9984C73.1534 15.0323 73.1546 15.0695 73.1687 15.1027C73.1829 15.1358 73.2089 15.1624 73.2418 15.1772C73.2746 15.192 73.3118 15.1939 73.346 15.1826L73.3331 15.1899Z" fill="black"/>
<path d="M72.0266 4.14992C72.2106 5.32568 73.0754 6.29536 74.0782 6.93568C75.081 7.576 76.2236 7.95136 77.3184 8.41872C77.4158 8.45123 77.5028 8.50901 77.5705 8.58616C77.6174 8.66005 77.6463 8.74384 77.6552 8.83088L77.9017 10.1391C77.9753 9.9231 78.0961 9.72617 78.2552 9.56259C78.4143 9.39901 78.6078 9.27289 78.8217 9.19336C79.0393 9.12135 79.2738 9.11804 79.4934 9.18388C79.7129 9.24971 79.9069 9.3815 80.049 9.56136C80.208 9.81273 80.2857 10.107 80.2716 10.4041C80.2696 10.9215 80.1313 11.4292 79.8705 11.8761C79.7757 12 79.7194 12.1491 79.7086 12.3048C79.7246 12.4118 79.7649 12.5138 79.8264 12.6029C80.0251 12.9378 80.225 13.272 80.4262 13.6057C80.5901 13.9238 80.8204 14.203 81.1015 14.4245C81.6222 14.7796 82.3141 14.6986 82.9415 14.6085C83.2561 14.5588 83.6094 14.487 83.7805 14.2184C83.8525 14.0856 83.8976 13.9399 83.913 13.7897C84.2111 11.9718 84.4374 10.1459 84.592 8.312C84.6619 7.48768 84.7171 6.656 84.5404 5.84088C84.2 4.28976 83.0077 3.00176 81.567 2.33384C80.1263 1.66592 78.4666 1.5684 76.8989 1.826C75.3312 2.0836 73.8408 2.68344 72.402 3.35688C71.4194 3.81872 70.3412 4.46088 70.159 5.5336C69.9879 6.5364 70.6852 7.4656 71.3771 8.2108C71.2826 6.89981 71.7106 5.60469 72.5676 4.60808" fill="#736666"/>
<path d="M71.885 4.18857C72.091 5.58329 73.1564 6.64497 74.3322 7.31657C75.0309 7.69539 75.7537 8.02791 76.496 8.31201C76.7094 8.39849 76.9229 8.48497 77.1363 8.57697C77.3111 8.65241 77.4068 8.69289 77.4473 8.89345C77.5356 9.32769 77.6055 9.76745 77.6846 10.2035C77.7306 10.4482 78.0526 10.3875 78.1262 10.2035C78.3415 9.65153 78.9266 9.19521 79.5338 9.43993C80.1962 9.70673 80.0858 10.6341 79.9294 11.1861C79.8771 11.3621 79.8055 11.5318 79.716 11.6921C79.6255 11.8298 79.5537 11.9789 79.5026 12.1355C79.4142 12.5035 79.6866 12.8237 79.8614 13.1144C80.1834 13.6572 80.487 14.3362 81.0482 14.6766C81.6094 15.017 82.2626 14.9489 82.8642 14.8606C83.1597 14.8413 83.4477 14.7591 83.7088 14.6195C83.8309 14.5362 83.9333 14.4271 84.0086 14.3C84.0839 14.1728 84.1305 14.0306 84.1449 13.8835C84.4209 12.3342 84.6104 10.7666 84.7613 9.20256C84.9011 7.76184 85.0906 6.25857 84.4963 4.89881C83.9994 3.80826 83.1663 2.90552 82.119 2.32281C79.5817 0.880246 76.485 1.40281 73.9034 2.42401C73.2539 2.67977 72.6154 2.95945 71.9862 3.27409C71.4542 3.52172 70.9692 3.85977 70.5528 4.27321C70.1549 4.67652 69.9197 5.21242 69.8922 5.77833C69.8757 6.44625 70.1848 7.07553 70.5767 7.59625C70.7772 7.86041 70.9961 8.11005 71.2318 8.34329C71.3514 8.46289 71.6145 8.38377 71.5998 8.19425C71.5431 7.57185 71.6131 6.94443 71.8057 6.34987C71.9983 5.75532 72.3095 5.20598 72.7203 4.73505C72.8933 4.53817 72.6007 4.24929 72.4333 4.44801C71.5543 5.4966 71.1 6.83647 71.16 8.20345L71.528 8.05256C70.7662 7.15649 69.872 5.92185 70.7497 4.79393C71.0922 4.38977 71.5152 4.06141 71.9917 3.82977C72.5767 3.52085 73.1781 3.24383 73.793 2.99993C76.2494 1.99345 79.2045 1.36049 81.6866 2.65953C82.6888 3.17069 83.4992 3.9915 83.9977 5.00001C84.5957 6.25857 84.408 7.68825 84.2792 9.02777C84.1357 10.5378 83.9443 12.0429 83.7051 13.5431C83.6573 13.8467 83.6426 14.143 83.3206 14.2699C83.0555 14.3566 82.7802 14.408 82.5018 14.4226C81.8522 14.4907 81.2726 14.4098 80.8678 13.8504C80.6434 13.5413 80.4594 13.199 80.2625 12.8734C80.1317 12.7063 80.0274 12.5202 79.9534 12.3214C79.9221 12.1484 80.119 11.9276 80.1907 11.7694C80.4759 11.1714 80.636 10.3857 80.4097 9.74536C80.3081 9.46596 80.113 9.2303 79.8574 9.07838C79.6018 8.92645 79.3016 8.86761 79.0076 8.91184C78.3673 8.99096 77.9036 9.49329 77.681 10.0692H78.1226C78.0379 9.63313 77.9625 9.1952 77.8686 8.7628C77.7877 8.38561 77.5577 8.27336 77.2228 8.13536C76.4702 7.82624 75.703 7.55577 74.9725 7.19881C73.6955 6.57321 72.4351 5.57961 72.1665 4.10209C72.1334 3.91809 71.8574 3.99721 71.885 4.17937V4.18857Z" fill="black"/>
<path d="M94.2465 61.1697C94.82 62.2585 95.551 63.2567 96.4159 64.1321C96.8445 64.5688 97.3018 64.9763 97.7848 65.352C98.2375 65.7053 98.7361 66.145 99.3507 66.0365C99.6046 65.9905 99.4942 65.617 99.2458 65.6538C98.9422 65.6979 98.6588 65.5029 98.4233 65.3373C98.1878 65.1717 97.9559 64.995 97.7315 64.8129C97.3058 64.4653 96.9015 64.0923 96.5207 63.696C95.7507 62.8799 95.072 61.9822 94.4967 61.0188C94.4775 60.9859 94.4459 60.9619 94.409 60.9523C94.372 60.9426 94.3328 60.948 94.2999 60.9673C94.2669 60.9866 94.243 61.0181 94.2333 61.0551C94.2237 61.092 94.2291 61.1312 94.2483 61.1642L94.2465 61.1697Z" fill="#18C4FF"/>
<path d="M78.6028 61.2267C77.7245 62.4989 76.6883 63.6544 75.519 64.6657C75.3221 64.8313 75.6073 65.1202 75.8024 64.949C76.9946 63.9179 78.0265 62.7148 78.8641 61.3794C78.9672 61.212 78.7132 61.0703 78.6028 61.2267Z" fill="#18C4FF"/>
<path d="M68.6908 96.8547C69.434 97.0044 70.1448 97.2847 70.7902 97.6827C70.9576 97.7875 71.114 97.5207 70.9448 97.4195C70.2748 97.0127 69.5377 96.7285 68.768 96.5805C68.584 96.5455 68.5123 96.8179 68.6926 96.8547H68.6908Z" fill="#18C4FF"/>
<path d="M68.8195 94.5381L71.5501 95.861C71.7212 95.9457 71.8721 95.6881 71.6991 95.6053L68.9612 94.2952C68.7993 94.2179 68.6558 94.459 68.8195 94.5381Z" fill="#18C4FF"/>
<path d="M92.7174 95.3256C93.601 94.3984 94.6357 93.6281 95.7774 93.0477C95.9614 92.9539 95.7976 92.6797 95.6154 92.7717C94.453 93.3719 93.4009 94.1652 92.504 95.1177C92.3752 95.2557 92.5813 95.4636 92.7119 95.3256H92.7174Z" fill="#18C4FF"/>
<path d="M93.9502 97.3293C94.7469 96.3467 95.67 95.4738 96.6955 94.7331C96.8556 94.6172 96.6955 94.3467 96.5373 94.4645C95.4955 95.2267 94.5578 96.1218 93.7478 97.1269C93.6356 97.2686 93.8343 97.471 93.9502 97.3293Z" fill="#18C4FF"/>
<path d="M92.8113 92.9759C93.6403 94.6925 94.7199 96.2763 96.0148 97.6753C96.1491 97.817 96.3589 97.6054 96.2282 97.4618C94.9579 96.0745 93.89 94.5148 93.0561 92.8287C92.9751 92.6613 92.7249 92.8085 92.8058 92.9759H92.8113Z" fill="#18C4FF"/>
<path d="M94.4655 91.1488L97.2421 95.6181C97.3598 95.8021 97.6579 95.6329 97.5401 95.4341L94.7673 90.963C94.6495 90.779 94.3477 90.9464 94.4655 91.147V91.1488Z" fill="#18C4FF"/>
<path d="M88.64 18.432C93.0973 17.9628 97.5904 17.9425 102.052 18.3713C103.354 18.4982 104.668 18.6638 105.894 19.1202C106.356 19.2633 106.775 19.5231 107.108 19.8746C107.343 20.1844 107.518 20.5358 107.623 20.9105C108.788 24.3651 108.974 28.0744 108.162 31.6285C108.046 32.1345 107.874 32.6846 107.426 32.9478C107.135 33.0886 106.814 33.1574 106.49 33.1483L97.6155 33.601C96.3791 33.6635 95.1187 33.7242 93.9227 33.4059C92.7267 33.0876 91.584 32.3185 91.1387 31.1648" fill="white"/>
<path d="M88.6399 18.5847C92.0146 18.2779 95.4065 18.2053 98.7912 18.3676C100.458 18.422 102.121 18.5743 103.77 18.8239C104.533 18.9395 105.281 19.1388 106 19.4182C106.324 19.5406 106.619 19.7285 106.867 19.9702C107.106 20.2543 107.281 20.5862 107.38 20.9436C108.403 23.9479 108.678 27.1563 108.181 30.2908C108.12 30.6791 108.045 31.0654 107.96 31.4482C107.906 31.7618 107.808 32.0661 107.667 32.3516C107.286 33.0416 106.39 32.922 105.713 32.9551L100.637 33.2146L98.0755 33.3452C97.2603 33.3875 96.4434 33.4427 95.6264 33.4096C94.2464 33.3562 92.7965 32.9938 91.8563 31.9082C91.6487 31.6705 91.482 31.4 91.3631 31.1078C91.2491 30.8263 90.7854 30.9495 90.9013 31.2347C91.4147 32.5006 92.6107 33.3194 93.9023 33.6543C95.5583 34.0867 97.345 33.8623 99.0359 33.7758L104.479 33.4979L105.805 33.4298C106.218 33.4244 106.631 33.393 107.04 33.336C107.745 33.2109 108.122 32.6607 108.311 32.013C108.519 31.2489 108.665 30.4693 108.747 29.6818C108.849 28.8589 108.9 28.0306 108.898 27.2014C108.894 25.5353 108.685 23.8759 108.275 22.261C108.173 21.8673 108.059 21.4754 107.934 21.089C107.829 20.7129 107.681 20.3499 107.494 20.007C107.11 19.3667 106.436 19.0539 105.757 18.8202C104.142 18.2682 102.387 18.1523 100.694 18.0272C97.1308 17.7554 93.551 17.7911 89.9942 18.1339C89.5415 18.1781 89.0901 18.2278 88.6399 18.283C88.4559 18.305 88.4431 18.6013 88.6399 18.5847Z" fill="black"/>
<path d="M104.722 21.1681C103.296 24.5666 103.686 27.9356 104.906 31.415C105.003 31.6929 105.125 31.9891 105.375 32.1418C105.579 32.2428 105.805 32.2909 106.032 32.2817C109.611 32.4177 113.195 32.2836 116.753 31.8806C119.964 31.5126 123.258 30.8925 125.929 29.0727C128.244 27.4977 129.926 25.1167 131.054 22.5536C132.182 19.9905 132.795 17.2342 133.312 14.4815C133.746 12.1607 134.118 9.83 134.428 7.48952C132.934 7.15799 131.4 7.03906 129.873 7.13624C129.166 7.18224 128.432 7.28528 127.849 7.68824C127.309 8.05624 126.962 8.64688 126.619 9.20624C124.739 12.2888 122.523 15.1539 120.012 17.7494C119.46 18.3014 118.908 18.8662 118.22 19.2398C117.397 19.6887 116.453 19.8506 115.526 19.9758C112.885 20.3264 110.216 20.4182 107.557 20.2499C106.799 20.2021 106.002 20.1414 105.32 20.4689C104.637 20.7964 103.443 24.8591 103.816 25.5197" fill="white"/>
<path d="M104.591 21.0908C103.837 22.8218 103.51 24.7087 103.638 26.5924C103.702 27.5231 103.846 28.4465 104.068 29.3524C104.191 29.8345 104.325 30.3117 104.47 30.7839C104.595 31.1795 104.698 31.6322 104.928 31.9836C105.158 32.335 105.507 32.4602 105.916 32.4859C106.407 32.5154 106.9 32.519 107.388 32.5282C108.418 32.5479 109.449 32.5448 110.481 32.519C112.513 32.4688 114.541 32.332 116.564 32.1087C120.021 31.726 123.639 31.0691 126.481 28.9274C129.241 26.8518 130.977 23.7478 132.051 20.5259C132.634 18.7001 133.095 16.8376 133.431 14.9507C133.814 12.9525 134.149 10.9463 134.438 8.93208C134.508 8.44878 134.574 7.96424 134.638 7.47848C134.638 7.43095 134.622 7.38485 134.593 7.34706C134.564 7.30927 134.524 7.28179 134.478 7.26872C132.915 6.9204 131.31 6.802 129.712 6.91728C129.026 6.9688 128.307 7.08656 127.727 7.484C127.148 7.88144 126.791 8.4684 126.439 9.048C124.841 11.6584 123.004 14.1149 120.952 16.3859C120.444 16.9379 119.929 17.5065 119.386 18.0309C118.863 18.5728 118.232 18.999 117.534 19.2821C116.823 19.522 116.087 19.6794 115.34 19.7513C114.501 19.8598 113.657 19.9353 112.812 19.9978C111.151 20.107 109.484 20.115 107.822 20.0218C107.103 19.9813 106.35 19.893 105.653 20.0843C105.48 20.118 105.316 20.1867 105.172 20.2861C105.027 20.3854 104.904 20.5134 104.81 20.6621C104.367 21.3466 104.114 22.1874 103.89 22.9658C103.768 23.3926 103.668 23.8256 103.592 24.263C103.523 24.5913 103.497 24.9271 103.515 25.2621C103.522 25.3897 103.553 25.5147 103.608 25.6301C103.746 25.8895 104.142 25.6595 104.004 25.3982C103.986 25.3614 104.004 25.4314 104.004 25.3872C104.004 25.343 103.991 25.3412 103.986 25.3173C103.977 25.2705 103.972 25.2231 103.971 25.1756C103.968 25.03 103.974 24.8842 103.991 24.7395C104.038 24.3421 104.113 23.9486 104.216 23.5619C104.4 22.734 104.682 21.9311 105.057 21.1699C105.12 21.0413 105.193 20.9182 105.277 20.8019C105.326 20.7287 105.395 20.6716 105.476 20.6382C106.111 20.3419 106.876 20.4284 107.553 20.4707C109.169 20.5725 110.789 20.5787 112.405 20.4891C113.205 20.445 114.003 20.3769 114.797 20.2849C115.54 20.2168 116.278 20.0994 117.005 19.9334C117.689 19.7706 118.334 19.4735 118.902 19.0594C119.462 18.6199 119.982 18.1329 120.457 17.604C122.5 15.4571 124.343 13.1291 125.964 10.6488C126.356 10.0471 126.717 9.42704 127.107 8.82536C127.497 8.22368 127.974 7.73976 128.682 7.53736C129.391 7.33496 130.121 7.32208 130.835 7.3184C131.624 7.31498 132.413 7.36971 133.194 7.48216C133.586 7.54104 133.976 7.61342 134.364 7.69928L134.204 7.48768C133.943 9.45035 133.636 11.405 133.284 13.3518C132.958 15.1734 132.609 16.9931 132.121 18.7798C131.232 22.0402 129.816 25.2602 127.337 27.6338C124.859 30.0074 121.537 30.9882 118.209 31.4739C114.388 32.0109 110.528 32.2153 106.672 32.0848C106.448 32.0848 106.223 32.0774 105.999 32.0627C105.774 32.0799 105.551 32.0078 105.379 31.8622C105.101 31.5714 105.011 31.0507 104.887 30.6809C104.596 29.7896 104.369 28.8782 104.21 27.954C103.892 26.1542 103.967 24.3068 104.431 22.5389C104.554 22.0875 104.702 21.6434 104.874 21.2086C104.937 21.0503 104.666 20.9344 104.598 21.0908H104.591Z" fill="black"/>
<path d="M148.019 2.30809C135.044 3.30291 122.013 3.30783 109.038 2.32281C108.54 2.28417 107.989 2.26025 107.598 2.56937C107.046 3.00545 107.099 3.84081 107.206 4.53449C109.782 21.341 113.421 38.7953 108.437 55.0498C106.017 62.9324 101.577 70.55 102.136 78.7858C102.37 82.2046 103.474 85.5331 103.562 88.9592C103.647 92.5467 102.619 96.0724 100.618 99.0516C99.5899 100.579 98.2964 101.974 97.6892 103.714C95.2125 110.793 108.957 110.055 112.543 110.233C122.205 110.715 131.882 111.083 141.557 110.785C144.775 110.684 148.968 109.959 149.851 106.263C151.034 101.32 152.221 96.3394 152.46 91.2629C152.876 82.3812 150.381 73.3505 152.326 64.6749C153.165 60.9305 154.902 57.5486 156.14 53.933C157.49 49.9692 158.519 45.9032 159.215 41.7742C161.206 30.0277 160.792 16.9637 157.191 5.55201C156.786 4.27689 156.341 2.93553 155.336 2.05601C154.332 1.17649 151.126 2.21425 148.506 2.26577" fill="white"/>
<path d="M148.019 2.12775C135.76 3.03392 123.452 3.05791 111.189 2.19951C110.472 2.14983 109.756 2.09095 109.038 2.04127C108.486 2.00263 107.914 1.98607 107.452 2.32279C106.56 2.97783 106.88 4.29711 107.022 5.21343C107.458 8.04519 107.916 10.8714 108.357 13.7014C109.266 19.5452 110.098 25.4111 110.451 31.3175C110.794 37.0491 110.685 42.8359 109.697 48.5031C109.21 51.2873 108.506 54.0293 107.592 56.704C106.703 59.3058 105.664 61.856 104.705 64.432C102.808 69.527 101.279 74.8243 102.002 80.3093C102.383 83.1945 103.194 86.0281 103.27 88.9573C103.338 91.7293 102.729 94.476 101.496 96.9595C100.893 98.1169 100.189 99.219 99.393 100.253C98.6331 101.284 97.8787 102.334 97.4371 103.549C97.0286 104.671 96.9311 105.941 97.5383 107.004C98.7895 109.212 101.973 109.777 104.252 110.09C106.858 110.449 109.476 110.432 112.1 110.507C117.804 110.673 123.508 111.041 129.212 111.135C132.316 111.185 135.422 111.188 138.526 111.135C140.734 111.094 142.988 111.135 145.15 110.618C146.871 110.2 148.591 109.361 149.527 107.79C150.122 106.791 150.289 105.591 150.551 104.478C150.907 102.963 151.253 101.447 151.563 99.9238C152.17 97.0713 152.559 94.1765 152.725 91.2647C152.863 88.3207 152.681 85.362 152.449 82.4198C151.991 76.622 151.294 70.6954 152.538 64.9398C153.145 62.1265 154.286 59.4787 155.344 56.8144C156.429 54.0645 157.341 51.2493 158.074 48.3854C159.475 42.9339 160.309 37.3525 160.564 31.7297C160.829 26.1776 160.535 20.613 159.684 15.12C159.258 12.3596 158.656 9.62903 157.883 6.94487C157.548 5.79119 157.226 4.60255 156.707 3.51327C156.339 2.72759 155.756 1.76895 154.867 1.52975C154.019 1.30343 153.066 1.46535 152.212 1.57943C150.979 1.74503 149.752 1.98239 148.504 2.01735C148.441 2.01735 148.381 2.04236 148.337 2.08687C148.292 2.13139 148.267 2.19176 148.267 2.25471C148.267 2.31766 148.292 2.37804 148.337 2.42255C148.381 2.46706 148.441 2.49207 148.504 2.49207C149.682 2.43389 150.856 2.31104 152.021 2.12407C152.889 2.00447 154.153 1.70271 154.983 2.12407C155.955 2.61719 156.435 4.09839 156.751 5.05151C157.16 6.27327 157.513 7.51527 157.837 8.76279C159.204 14.076 159.971 19.5258 160.124 25.01C160.455 36.2082 158.582 47.3862 154.402 57.7841C153.351 60.3969 152.339 63.0152 151.842 65.7991C151.362 68.4984 151.268 71.2474 151.353 73.9834C151.537 79.6764 152.457 85.3418 152.218 91.0458C152.092 94.0542 151.625 97.035 151.022 99.9808C150.738 101.366 150.425 102.741 150.102 104.121C149.824 105.293 149.664 106.59 148.998 107.617C147.978 109.219 146.063 109.911 144.278 110.233C141.901 110.664 139.411 110.561 137.008 110.585C131.015 110.642 125.021 110.48 119.035 110.231C116.643 110.13 114.266 109.963 111.881 109.908C110.724 109.88 109.566 109.876 108.411 109.832C105.678 109.731 102.677 109.586 100.155 108.425C99.1888 107.981 98.2173 107.321 97.8493 106.27C97.2973 104.71 98.1989 103.008 99.0416 101.744C99.761 100.663 100.598 99.668 101.277 98.5585C103.292 95.2498 104.165 91.3714 103.763 87.5185C103.485 84.718 102.707 81.9985 102.46 79.1888C102.225 76.4932 102.541 73.7902 103.174 71.1682C104.427 65.9647 106.773 61.1182 108.426 56.0434C110.135 50.7976 110.959 45.3107 111.156 39.8073C111.557 28.5336 109.5 17.3593 107.761 6.26959C107.656 5.59247 107.526 4.91351 107.452 4.23087C107.379 3.54823 107.417 2.75887 108.236 2.61351C108.862 2.49575 109.592 2.64663 110.221 2.68895C110.973 2.74047 111.726 2.78893 112.479 2.83431C115.492 3.01463 118.507 3.14159 121.525 3.21519C127.486 3.36239 133.449 3.30106 139.413 3.03119C142.283 2.90853 145.152 2.73005 148.019 2.49575C148.251 2.47735 148.252 2.11671 148.019 2.12775Z" fill="black"/>
<path d="M140.712 2.13328C139.323 1.23486 137.741 0.678674 136.095 0.510402C135.755 0.462373 135.41 0.475459 135.074 0.549042C134.408 0.733042 133.911 1.31448 133.667 1.95848C133.422 2.60248 133.387 3.3072 133.361 3.99536C133.343 4.50872 133.415 5.15456 133.898 5.32384C134.266 5.4508 134.671 5.1932 134.881 4.86384C135.091 4.53448 135.17 4.14072 135.326 3.78376C135.149 4.0029 135.037 4.26804 135.004 4.54824C134.972 4.82843 135.02 5.11212 135.142 5.36616C135.313 5.70656 135.694 5.98992 136.062 5.88688C136.681 5.71208 136.601 4.78288 137.019 4.28976C136.922 4.69272 136.824 5.11408 136.925 5.5152C137.026 5.91632 137.396 6.28248 137.807 6.22728C138.359 6.15184 138.557 5.45264 138.62 4.89328C138.789 5.30544 138.62 5.85008 138.922 6.18128C139.048 6.29166 139.207 6.35582 139.375 6.36318C139.542 6.37054 139.707 6.32066 139.842 6.22176C140.106 6.02097 140.304 5.74622 140.412 5.4324C140.672 4.80623 140.803 4.1342 140.798 3.45624C140.777 3.27402 140.809 3.08955 140.889 2.92448C140.959 2.8196 141.073 2.74048 141.139 2.63928C141.205 2.53808 141.196 2.35408 141.076 2.31544" fill="white"/>
<path d="M140.782 2.01C139.908 1.38794 138.932 0.922262 137.899 0.633678C137.373 0.484267 136.838 0.374782 136.296 0.306158C135.77 0.238078 135.232 0.201278 134.736 0.418398C133.852 0.804798 133.391 1.74688 133.238 2.65216C133.152 3.16401 133.114 3.68257 133.122 4.20144C133.122 4.586 133.192 5.02024 133.466 5.30544C133.629 5.46831 133.848 5.56399 134.078 5.57353C134.308 5.58307 134.534 5.50578 134.71 5.35696C135.196 4.98896 135.284 4.402 135.507 3.88496C135.588 3.70096 135.341 3.42864 135.179 3.63288C135.02 3.82691 134.905 4.05296 134.842 4.29557C134.778 4.53818 134.768 4.79164 134.811 5.03864C134.896 5.506 135.223 5.9844 135.709 6.09664C135.907 6.13635 136.112 6.10659 136.29 6.01239C136.469 5.91818 136.609 5.76531 136.688 5.5796C136.872 5.2116 136.907 4.76264 137.166 4.44064L136.798 4.22904C136.682 4.70008 136.565 5.22264 136.743 5.70104C136.809 5.89559 136.928 6.06818 137.085 6.19993C137.243 6.33169 137.434 6.41753 137.637 6.44808C138.482 6.53272 138.752 5.54464 138.831 4.89512L138.395 4.954C138.579 5.48392 138.355 6.2144 138.997 6.50144C139.606 6.77192 140.189 6.31744 140.469 5.79856C140.811 5.12271 140.993 4.37734 141.001 3.62C140.981 3.4467 140.991 3.27136 141.028 3.10112C141.084 2.9576 141.235 2.87664 141.31 2.74416C141.343 2.69431 141.366 2.63824 141.377 2.57935C141.388 2.52045 141.387 2.45994 141.374 2.40147C141.361 2.34301 141.336 2.2878 141.301 2.23917C141.266 2.19055 141.221 2.14952 141.17 2.11856C140.914 1.98608 140.69 2.37432 140.946 2.50312C140.909 2.48472 140.651 2.85456 140.625 2.9208C140.56 3.1602 140.536 3.40927 140.556 3.6568C140.533 4.24714 140.403 4.8284 140.171 5.37168C140.02 5.72312 139.645 6.32112 139.17 6.0856C138.955 5.97704 138.942 5.7176 138.927 5.4968C138.926 5.27105 138.892 5.0467 138.826 4.83072C138.811 4.77976 138.778 4.73588 138.733 4.70701C138.689 4.67813 138.635 4.66617 138.583 4.67328C138.53 4.68039 138.482 4.70611 138.446 4.74578C138.411 4.78545 138.391 4.83646 138.39 4.8896C138.344 5.2576 138.215 6.02488 137.702 6.00648C137.411 5.99728 137.194 5.71208 137.128 5.45448C137.034 5.08648 137.128 4.70192 137.221 4.35048C137.269 4.15544 137.003 3.95672 136.853 4.13704C136.675 4.3785 136.542 4.65118 136.463 4.94112C136.386 5.17664 136.311 5.5336 136.06 5.6532C135.678 5.8372 135.335 5.37904 135.247 5.06256C135.193 4.8703 135.185 4.66816 135.223 4.47209C135.26 4.27602 135.343 4.0914 135.464 3.9328L135.117 3.7304C134.955 4.11864 134.872 4.59336 134.565 4.90064C134.303 5.15824 133.895 5.22632 133.711 4.8528C133.594 4.5406 133.555 4.20463 133.597 3.87392C133.603 3.41148 133.653 2.95066 133.746 2.4976C133.915 1.7616 134.355 0.988798 135.129 0.779038C135.571 0.659438 136.062 0.729359 136.509 0.790079C136.964 0.853432 137.414 0.947486 137.856 1.0716C138.827 1.35211 139.759 1.75004 140.633 2.25656C140.795 2.3504 140.922 2.11672 140.776 2.01184L140.782 2.01Z" fill="black"/>
<path d="M71.3532 43.3346C69.6144 46.3632 67.1212 49.0054 64.0061 50.621C60.9235 52.1985 57.389 52.6576 54.0057 51.92C50.2797 51.1214 46.9861 49.0956 44.2537 46.4754C42.8979 45.1557 41.6467 43.7328 40.5111 42.2195C39.3569 40.7349 38.2939 39.1815 37.3279 37.568C36.3656 35.9212 35.499 34.153 34.13 32.795C33.5013 32.2061 32.8067 31.6918 32.06 31.2623C31.3498 30.8244 30.6156 30.3902 30.036 29.7793C29.7505 29.48 29.5195 29.1332 29.3534 28.7544C29.243 28.5005 28.8713 28.7194 28.9854 28.9715C29.6919 30.6018 31.4565 31.3175 32.8236 32.2835C34.4207 33.4041 35.3996 35.1466 36.338 36.8118C36.8054 37.6398 37.2727 38.4678 37.8008 39.2553C38.3289 40.0428 38.9048 40.8671 39.4715 41.6473C40.5943 43.2104 41.8239 44.6939 43.1515 46.0872C45.8251 48.8472 49.0524 51.092 52.7802 52.1445C56.2179 53.1372 59.8921 52.9202 63.1891 51.5299C66.4146 50.1462 69.0771 47.6659 70.9171 44.6851C71.1582 44.295 71.3845 43.8939 71.5998 43.4891C71.6863 43.3272 71.4452 43.1855 71.355 43.3438L71.3532 43.3346Z" fill="black"/>
<path d="M29.576 25.7313C29.9439 26.4264 30.4626 27.0305 31.094 27.4995C31.1314 27.521 31.1757 27.5268 31.2174 27.5158C31.2591 27.5048 31.2947 27.4778 31.3166 27.4406C31.3379 27.4031 31.3438 27.3588 31.3332 27.3169C31.3225 27.2751 31.2962 27.239 31.2596 27.2162C30.6693 26.7832 30.1833 26.2237 29.8373 25.5786C29.7434 25.4074 29.4858 25.5583 29.576 25.7313Z" fill="black"/>
<path d="M31.2872 23.768C31.5686 24.5863 32.1253 25.2815 32.8623 25.735C33.0463 25.8435 33.2027 25.5638 33.026 25.4553C32.3564 25.0464 31.8428 24.4252 31.5669 23.6907C31.5025 23.5178 31.2265 23.5895 31.2872 23.768Z" fill="black"/>
<path d="M33.2266 21.3392C33.9201 22.5672 34.8368 23.6549 35.9296 24.5463C36.0933 24.677 36.3289 24.4525 36.1651 24.3108C35.108 23.4211 34.1999 22.3682 33.475 21.192C33.4557 21.1591 33.4242 21.1351 33.3872 21.1255C33.3503 21.1158 33.3111 21.1212 33.2781 21.1405C33.2452 21.1598 33.2213 21.1913 33.2116 21.2282C33.2019 21.2652 33.2073 21.3044 33.2266 21.3374V21.3392Z" fill="black"/>
<path d="M37.3832 28.8648C37.4363 27.6439 37.3356 26.4211 37.0832 25.2253C37.0207 24.9272 36.9489 24.631 36.868 24.3366C36.8091 24.1139 36.6527 23.7312 36.89 23.5582C37.2341 23.3043 37.81 23.7183 38.0916 23.9023C38.9545 24.469 39.7825 25.1554 40.2867 26.0754C40.5737 26.6016 40.7172 27.1794 40.9307 27.7424C41.1289 28.2505 41.3818 28.7354 41.6851 29.1886C42.8443 30.933 44.5132 32.3461 46.1968 33.566C47.8325 34.7528 49.575 35.774 51.2641 36.878C53.198 38.1421 55.038 39.5478 56.5265 41.329C56.5625 41.3653 56.6096 41.3885 56.6603 41.3948C56.711 41.4011 56.7624 41.3903 56.8062 41.3639C58.7216 39.9582 60.2801 38.1071 61.8938 36.3794C62.7052 35.5146 63.5259 34.6534 64.4164 33.8696C64.617 33.6948 64.8212 33.5218 65.0292 33.3562C65.1322 33.2753 65.2371 33.1998 65.3401 33.1189C65.3015 33.1483 65.4542 33.0434 65.3916 33.0747C65.4156 33.0637 65.3714 33.0563 65.3916 33.0747C65.5786 33.2232 65.745 33.3958 65.8866 33.5881C66.0571 33.869 66.2504 34.1354 66.4644 34.3848C66.5027 34.4322 66.5527 34.4689 66.6095 34.4912C66.6662 34.5134 66.7278 34.5205 66.7882 34.5118C66.8523 34.4934 66.9066 34.4504 66.9391 34.3922C66.9711 34.3364 66.9859 34.2723 66.9814 34.2082C67.0035 33.945 66.5932 33.9469 66.5711 34.2082C66.5711 34.1934 66.7937 34.0242 66.8213 34.1346C66.8038 34.1102 66.7834 34.0879 66.7606 34.0683C66.6815 33.969 66.6134 33.8586 66.5416 33.7537C66.3705 33.4846 66.1818 33.227 65.9768 32.9827C65.813 32.7987 65.5775 32.5816 65.3088 32.635C65.157 32.6862 65.0191 32.7719 64.9059 32.8852C64.6814 33.0569 64.4618 33.2348 64.2472 33.4188C62.4716 34.9442 60.9628 36.7547 59.3417 38.4365C58.4911 39.3578 57.5635 40.2048 56.5688 40.9683L56.8485 41.0051C55.4759 39.362 53.7978 38.028 52.0277 36.8394C50.2576 35.6507 48.4544 34.6314 46.7322 33.4243C45.8445 32.8136 44.9987 32.1442 44.2004 31.4206C43.34 30.6616 42.5801 29.796 41.939 28.8446C41.6167 28.3379 41.3567 27.7942 41.1644 27.2254C40.999 26.6632 40.7661 26.1232 40.4707 25.6172C39.8966 24.7211 39.0447 24.0458 38.1578 23.481C37.7751 23.2381 37.2378 22.9676 36.7852 23.1737C36.2332 23.4221 36.4006 24.0532 36.5294 24.5077C36.9168 25.9232 37.1026 27.3863 37.0814 28.8538C37.0814 28.8928 37.0969 28.9302 37.1245 28.9579C37.1521 28.9855 37.1896 29.001 37.2286 29.001C37.2676 29.001 37.3051 28.9855 37.3327 28.9579C37.3603 28.9302 37.3758 28.8928 37.3758 28.8538L37.3832 28.8648Z" fill="black"/>
<path d="M119.583 16.776C118.733 16.6895 117.951 17.3114 117.506 18.0419C116.888 19.0576 116.809 20.5333 117.703 21.3134C117.949 21.5208 118.237 21.6732 118.547 21.7606C119.865 22.1506 121.44 21.4146 121.92 20.1266C122.4 18.8386 121.637 17.2066 120.317 16.8146" fill="#18C4FF"/>
<path d="M23.1224 21.8533C25.7812 21.3528 28.3701 23.7025 28.8743 26.3613C29.3784 29.0201 28.256 31.747 26.6663 33.9421C25.0765 36.1372 23.0415 37.9588 21.3303 40.0601C19.6191 42.1614 18.2299 44.6896 18.2796 47.3962C18.3053 48.7578 18.7819 50.2114 19.9172 50.9603C20.5648 51.3853 21.3487 51.5362 22.1141 51.6466C25.2617 52.1031 28.4631 52.0347 31.5883 51.4442C33.6123 51.0596 35.8644 50.239 36.6409 48.3162C37.1028 47.1828 36.9372 45.904 37.0862 44.6877C37.41 42.0289 39.1967 39.8228 40.6944 37.6C45.2006 30.9135 47.5024 22.144 44.437 14.6847C42.1793 9.19228 37.1764 5.03572 31.5036 3.27668C25.8309 1.51764 19.5823 2.04572 14.0439 4.1838C11.926 5.0026 9.88547 6.05508 8.10067 7.459C1.23931 12.8704 -0.742365 22.6721 0.606355 31.2999C0.703875 31.92 0.832675 32.5732 1.25588 33.035C1.72876 33.5502 2.4666 33.7158 3.1566 33.8262C8.22153 34.6362 13.4116 34.0411 18.1618 32.1058C18.7138 31.8776 19.2971 31.6127 19.6614 31.1324C20.4894 30.0413 19.8748 28.5086 19.5087 27.1893C19.1425 25.87 18.7046 22.5102 22.7379 21.9288" fill="#006CDC"/>
<path d="M32.8267 56.5134C30.6297 56.4637 28.4567 56.0424 26.2616 55.9614C24.0664 55.8805 21.7646 56.1767 19.9485 57.4132C14.7726 60.9423 16.1287 70.4772 22.806 71.1893C25.3673 71.4616 27.958 71.7265 30.5101 71.3162C33.4026 70.847 35.0641 69.2278 35.456 66.3482C35.7803 63.9659 35.8752 61.5579 35.7394 59.1575C35.7081 58.5908 35.6584 58.0075 35.399 57.5015C35.1396 56.9955 34.6244 56.5815 34.0558 56.6146" fill="#006CDC"/>
<path d="M119.583 16.638C118.4 16.5184 117.425 17.5378 117.04 18.5645C116.672 19.5342 116.739 20.7872 117.581 21.4938C119.329 22.9658 122.365 21.5177 122.266 19.2306C122.22 18.0879 121.479 16.9913 120.363 16.6546C120.15 16.5902 120.062 16.9195 120.271 16.9876C121.111 17.2562 121.688 18.0438 121.832 18.8957C121.902 19.3297 121.845 19.7746 121.67 20.1775C121.494 20.5804 121.206 20.9243 120.84 21.1681C120.091 21.6814 119.072 21.836 118.242 21.4202C117.359 20.9786 117.112 19.9794 117.311 19.0705C117.539 18.029 118.415 16.8625 119.583 16.9269C119.767 16.9379 119.767 16.6564 119.583 16.638Z" fill="black"/>
<path d="M121.795 30.5024C120.943 30.4141 120.163 31.036 119.718 31.7665C119.099 32.784 119.018 34.256 119.92 35.038C120.165 35.2469 120.454 35.3995 120.765 35.4851C122.082 35.8752 123.657 35.141 124.137 33.853C124.617 32.565 123.852 30.933 122.535 30.541" fill="#006CDC"/>
<path d="M121.795 30.357C120.612 30.2374 119.637 31.2568 119.252 32.2854C118.884 33.2532 118.948 34.5063 119.793 35.2128C121.539 36.6848 124.577 35.2386 124.476 32.9496C124.43 31.807 123.69 30.7103 122.573 30.3736C122.36 30.3092 122.272 30.6386 122.483 30.7066C122.891 30.8544 123.252 31.11 123.526 31.4464C123.801 31.7827 123.979 32.1871 124.042 32.6166C124.112 33.0505 124.055 33.4954 123.879 33.8981C123.703 34.3008 123.414 34.6442 123.048 34.8871C122.299 35.4005 121.28 35.555 120.45 35.141C119.569 34.6994 119.32 33.6985 119.53 32.7895C119.758 31.7481 120.634 30.5815 121.802 30.6459C121.986 30.657 121.986 30.3754 121.802 30.357H121.795Z" fill="black"/>
<path d="M119.307 44.2214C118.455 44.1331 117.675 44.755 117.23 45.4874C116.612 46.5012 116.531 47.9787 117.427 48.7589C117.673 48.9657 117.961 49.1175 118.271 49.2041C119.589 49.5961 121.164 48.8601 121.644 47.5721C122.124 46.2841 121.361 44.652 120.041 44.2601" fill="#18C4FF"/>
<path d="M119.307 44.0761C118.124 43.9565 117.149 44.9758 116.764 46.0044C116.396 46.9741 116.461 48.2253 117.305 48.9318C119.052 50.4038 122.089 48.9576 121.99 46.6705C121.944 45.5278 121.203 44.4294 120.087 44.0945C120.044 44.0847 119.999 44.092 119.961 44.1149C119.923 44.1377 119.895 44.1744 119.883 44.2172C119.871 44.26 119.876 44.3057 119.897 44.3449C119.918 44.384 119.953 44.4136 119.995 44.4275C120.404 44.5752 120.765 44.8307 121.039 45.167C121.314 45.5033 121.493 45.9078 121.556 46.3374C121.625 46.7711 121.569 47.2157 121.393 47.6182C121.217 48.0208 120.929 48.3643 120.564 48.608C119.813 49.1214 118.796 49.2759 117.964 48.8619C117.083 48.4203 116.834 47.4212 117.044 46.5122C117.272 45.4708 118.148 44.3042 119.317 44.3668C119.501 44.3778 119.501 44.0963 119.317 44.0779L119.307 44.0761Z" fill="black"/>
<path d="M116.82 57.9405C115.97 57.854 115.188 58.4759 114.742 59.2064C114.126 60.2221 114.045 61.6978 114.941 62.4779C115.187 62.6856 115.474 62.8381 115.784 62.9251C117.101 63.3151 118.676 62.5791 119.158 61.2911C119.64 60.0031 118.873 58.3711 117.554 57.9791" fill="#006CDC"/>
<path d="M116.82 57.797C115.637 57.6774 114.661 58.6967 114.277 59.7234C113.909 60.6931 113.975 61.9462 114.818 62.6527C116.566 64.1247 119.602 62.6766 119.502 60.3895C119.456 59.2469 118.715 58.1502 117.6 57.8135C117.386 57.7491 117.298 58.0785 117.508 58.1466C118.347 58.4152 118.925 59.2027 119.068 60.0546C119.138 60.4883 119.083 60.933 118.908 61.3358C118.732 61.7387 118.445 62.0827 118.08 62.327C117.331 62.8404 116.312 62.995 115.482 62.5791C114.599 62.1375 114.352 61.1384 114.551 60.2294C114.779 59.188 115.655 58.0214 116.823 58.0858C117.007 58.0969 117.007 57.8154 116.823 57.797H116.82Z" fill="black"/>
<path d="M114.334 71.6614C113.482 71.573 112.702 72.195 112.256 72.9254C111.638 73.9411 111.557 75.4168 112.453 76.197C112.698 76.4053 112.986 76.5579 113.296 76.6441C114.615 77.0342 116.19 76.3 116.671 75.012C117.151 73.724 116.385 72.0919 115.066 71.7" fill="#18C4FF"/>
<path d="M114.334 71.516C113.149 71.3964 112.174 72.4158 111.791 73.4443C111.423 74.4122 111.487 75.6652 112.33 76.3718C114.078 77.8438 117.114 76.3975 117.015 74.1086C116.969 72.9659 116.227 71.8693 115.112 71.5326C114.899 71.4682 114.81 71.7975 115.02 71.8656C115.429 72.0122 115.79 72.2675 116.065 72.604C116.34 72.9405 116.518 73.3455 116.58 73.7755C116.65 74.2087 116.593 74.6527 116.418 75.0547C116.242 75.4566 115.954 75.7995 115.589 76.0424C114.84 76.5558 113.82 76.7103 112.991 76.2963C112.107 75.8547 111.861 74.8538 112.06 73.9448C112.29 72.9034 113.164 71.7368 114.334 71.8012C114.518 71.8122 114.518 71.5307 114.334 71.5123V71.516Z" fill="black"/>
<path d="M114.61 85.3804C113.758 85.2939 112.978 85.914 112.532 86.6463C111.914 87.6602 111.833 89.1377 112.729 89.9178C112.975 90.125 113.262 90.2768 113.572 90.3631C114.891 90.755 116.466 90.019 116.947 88.731C117.427 87.443 116.661 85.811 115.342 85.419" fill="#006CDC"/>
<path d="M114.61 85.235C113.427 85.1154 112.451 86.1348 112.067 87.1633C111.699 88.133 111.763 89.3842 112.608 90.0926C114.354 91.5554 117.392 90.1165 117.291 87.8294C117.245 86.6868 116.503 85.5901 115.388 85.2534C115.345 85.2451 115.301 85.2533 115.264 85.2764C115.226 85.2995 115.199 85.3358 115.188 85.378C115.177 85.4202 115.182 85.4652 115.202 85.5038C115.222 85.5425 115.257 85.572 115.298 85.5865C115.706 85.7342 116.067 85.9899 116.341 86.3262C116.615 86.6625 116.794 87.0669 116.856 87.4964C116.927 87.9291 116.872 88.3731 116.698 88.7754C116.523 89.1777 116.236 89.5212 115.872 89.7651C115.123 90.2785 114.104 90.4349 113.274 90.019C112.391 89.5774 112.144 88.5783 112.345 87.6693C112.573 86.6279 113.449 85.4613 114.617 85.5239C114.801 85.5349 114.801 85.2534 114.617 85.235H114.61Z" fill="black"/>
<path d="M128.29 18.3658C128.224 18.4294 128.176 18.5099 128.151 18.5986C128.126 18.6873 128.126 18.7811 128.15 18.8699C128.187 19.0153 128.316 19.2066 128.483 19.2122C128.678 19.2122 128.951 19.0282 129.107 18.9325C129.295 18.8099 129.466 18.6626 129.615 18.4946C129.925 18.1549 130.141 17.7408 130.243 17.2926C130.346 16.8444 130.33 16.3774 130.198 15.937C130.191 15.9038 130.175 15.8733 130.152 15.8488C130.128 15.8242 130.099 15.8066 130.066 15.7979C130.033 15.7891 129.999 15.7896 129.966 15.7992C129.934 15.8088 129.904 15.8272 129.882 15.8523C128.943 16.5883 128.524 17.9702 129.146 19.0392C129.729 20.031 131.041 20.4983 132.036 19.8157C132.302 19.642 132.52 19.4045 132.671 19.1249C132.821 18.8453 132.899 18.5324 132.898 18.2149C132.896 18.1679 132.879 18.1227 132.85 18.0859C132.821 18.0491 132.781 18.0226 132.735 18.0104C132.69 17.9983 132.642 18.001 132.598 18.0183C132.555 18.0356 132.518 18.0664 132.493 18.1063C132.337 18.4103 132.245 18.7427 132.222 19.0834C132.199 19.424 132.245 19.7658 132.358 20.088C132.376 20.1436 132.413 20.1906 132.464 20.2194C132.515 20.2481 132.574 20.2564 132.631 20.2426C133.258 20.0444 133.796 19.6322 134.151 19.0778L133.738 19.0245C133.989 19.7734 134.957 19.6556 135.578 19.6335L138.596 19.5305C140.621 19.4606 142.645 19.3876 144.668 19.3115L148.094 19.1846C148.137 19.1802 148.176 19.1601 148.205 19.1284C148.233 19.0966 148.249 19.0553 148.249 19.0125C148.249 18.9697 148.233 18.9285 148.205 18.8967C148.176 18.8649 148.137 18.8449 148.094 18.8405C144.301 18.9374 140.508 19.0392 136.716 19.1459L135.117 19.1919C134.835 19.1919 134.287 19.2434 134.171 18.903C134.158 18.8616 134.133 18.8247 134.1 18.7968C134.066 18.7689 134.026 18.7511 133.983 18.7455C133.94 18.7399 133.896 18.7467 133.856 18.7652C133.817 18.7836 133.784 18.813 133.761 18.8497C133.47 19.3077 133.028 19.6494 132.511 19.8157L132.783 19.9702C132.686 19.7059 132.644 19.4245 132.659 19.1433C132.674 18.862 132.747 18.5868 132.872 18.3345L132.467 18.2241C132.469 18.5151 132.386 18.8003 132.228 19.0447C132.07 19.2892 131.844 19.4823 131.578 19.6004C131.309 19.7171 131.011 19.7549 130.721 19.7093C130.431 19.6637 130.16 19.5366 129.939 19.3428C128.885 18.4743 129.164 16.9269 130.147 16.1302L129.83 16.0455C130.009 16.6093 129.964 17.2203 129.705 17.7519C129.446 18.2835 128.992 18.695 128.437 18.9012L128.563 18.9178C128.531 18.9041 128.503 18.8831 128.481 18.8566C128.459 18.83 128.444 18.7986 128.437 18.765C128.429 18.7314 128.43 18.6966 128.439 18.6633C128.448 18.63 128.464 18.5993 128.487 18.5737C128.5 18.5606 128.51 18.5451 128.518 18.5281C128.525 18.511 128.528 18.4928 128.528 18.4743C128.528 18.4559 128.525 18.4376 128.518 18.4205C128.51 18.4035 128.5 18.388 128.487 18.375C128.474 18.3619 128.459 18.3516 128.441 18.3445C128.424 18.3374 128.406 18.3338 128.388 18.3338C128.369 18.3338 128.351 18.3374 128.334 18.3445C128.317 18.3516 128.301 18.3619 128.288 18.375L128.29 18.3658Z" fill="black"/>
<path d="M130.224 33.8512C132.471 33.647 134.717 33.4354 136.966 33.2403C136.992 33.2388 137.018 33.2316 137.042 33.2191C137.065 33.2066 137.086 33.1892 137.102 33.168C137.118 33.1468 137.129 33.1224 137.135 33.0965C137.141 33.0706 137.141 33.0437 137.135 33.0177L136.98 32.3387L136.714 32.543C137.425 33.0498 138.234 33.4043 139.089 33.5841C139.943 33.764 140.826 33.7653 141.682 33.5881C141.902 33.5366 141.803 33.2201 141.59 33.255C139.952 33.53 138.271 33.1629 136.898 32.2302C136.76 32.1345 136.594 32.2909 136.631 32.4344L136.796 33.1115L136.966 32.8889C134.719 33.1207 132.471 33.3342 130.224 33.5568C130.04 33.5752 130.04 33.8678 130.224 33.8512Z" fill="black"/>
<path d="M145.641 34.0591C145.692 34.0591 145.74 34.0391 145.776 34.0033C145.812 33.9676 145.832 33.9192 145.832 33.8687C145.832 33.8182 145.812 33.7697 145.776 33.734C145.74 33.6983 145.692 33.6782 145.641 33.6782C145.591 33.6782 145.542 33.6983 145.507 33.734C145.471 33.7697 145.451 33.8182 145.451 33.8687C145.451 33.9192 145.471 33.9676 145.507 34.0033C145.542 34.0391 145.591 34.0591 145.641 34.0591Z" fill="black"/>
<path d="M127.147 48.424C129.06 48.5259 130.936 47.8753 132.375 46.6116C132.393 46.5918 132.407 46.5682 132.415 46.5426C132.423 46.5169 132.425 46.4898 132.422 46.4632C132.418 46.4365 132.409 46.4109 132.395 46.3883C132.38 46.3656 132.361 46.3463 132.338 46.3319C131.952 46.0596 131.459 46.2362 131.175 46.5729C131.023 46.7492 130.938 46.9738 130.935 47.2069C130.932 47.44 131.012 47.6665 131.161 47.8462C131.321 48.0377 131.524 48.1894 131.753 48.2893C131.983 48.3892 132.232 48.4347 132.482 48.4221C133.155 48.3964 133.753 48.0229 134.301 47.6696L134.003 47.4985C133.954 48.1038 134.469 48.6153 135.043 48.7129C135.711 48.8251 136.331 48.4148 136.756 47.9309L136.427 47.8444C136.89 49.1416 138.809 48.7239 139.827 48.6374C141.612 48.4865 143.396 48.3314 145.179 48.1719L148.243 47.9033C148.466 47.883 148.469 47.5353 148.243 47.5537L143.213 47.9621L140.695 48.1701C139.915 48.2363 139.128 48.3393 138.346 48.3541C137.816 48.3688 137.019 48.3246 136.807 47.7303C136.798 47.6974 136.779 47.6676 136.755 47.6438C136.73 47.6199 136.699 47.6029 136.666 47.5942C136.633 47.5855 136.598 47.5855 136.565 47.5942C136.531 47.6029 136.501 47.62 136.476 47.6438C136.163 48.0118 135.727 48.3485 135.22 48.3283C134.78 48.3099 134.362 47.9493 134.399 47.4911C134.399 47.4563 134.389 47.4222 134.372 47.3921C134.354 47.362 134.329 47.3371 134.299 47.3197C134.269 47.3024 134.235 47.2933 134.2 47.2934C134.165 47.2934 134.131 47.3026 134.101 47.32C133.416 47.7597 132.498 48.3338 131.698 47.8186C131.411 47.6346 131.199 47.2869 131.359 46.9501C131.497 46.6576 131.862 46.4276 132.16 46.6318L132.123 46.3521C130.761 47.5672 128.978 48.2029 127.155 48.1241C126.971 48.1149 126.971 48.4056 127.155 48.4166L127.147 48.424Z" fill="black"/>
<path d="M123.444 61.4291C124.138 61.4972 124.836 61.523 125.534 61.5064C126.248 61.5064 126.96 61.477 127.67 61.4181C128.272 61.3702 128.971 61.3758 129.536 61.1384C129.996 60.9434 130.355 60.4668 130.198 59.9534C130.198 59.9046 130.179 59.8578 130.144 59.8233C130.11 59.7888 130.063 59.7694 130.014 59.7694C129.965 59.7694 129.919 59.7888 129.884 59.8233C129.85 59.8578 129.83 59.9046 129.83 59.9534C129.793 60.1173 129.799 60.2879 129.846 60.4489C129.894 60.61 129.982 60.7562 130.103 60.8734C130.398 61.1344 130.776 61.2829 131.17 61.293C132.072 61.367 132.98 61.2452 133.83 60.936L133.595 60.8035C133.714 61.1568 133.858 61.5395 134.165 61.7714C134.559 62.0731 135.043 61.9314 135.486 61.845C136.627 61.6242 137.768 61.4089 138.907 61.1807C139.131 61.1366 139.036 60.7998 138.813 60.8403C137.849 61.0151 136.885 61.2083 135.921 61.3831L135.209 61.5193C134.991 61.5889 134.76 61.6003 134.537 61.5524C134.2 61.4291 134.066 61.0096 133.963 60.7023C133.957 60.6777 133.946 60.6545 133.931 60.6342C133.916 60.6138 133.897 60.5968 133.875 60.5842C133.853 60.5716 133.829 60.5637 133.804 60.5609C133.779 60.5581 133.753 60.5605 133.729 60.568C133.068 60.803 132.372 60.9273 131.67 60.936C131.337 60.9574 131.002 60.9149 130.684 60.8109C130.388 60.6894 130.121 60.4061 130.198 60.0638H129.83C130.023 60.6821 129.225 60.9029 128.78 60.9618C128.198 61.039 127.611 61.0887 127.026 61.1255C126.441 61.1623 125.845 61.1862 125.252 61.1918C124.66 61.1973 124.04 61.1605 123.434 61.1623C123.25 61.1623 123.26 61.4218 123.434 61.442L123.444 61.4291Z" fill="black"/>
<path d="M122.518 75.6174C123.946 75.4922 125.383 75.748 126.807 75.5511C128.009 75.3837 129.199 74.8593 129.808 73.7571C130.125 73.2112 130.225 72.5665 130.09 71.9502C130.08 71.9147 130.061 71.8827 130.033 71.8584C130.006 71.8341 129.972 71.8185 129.935 71.8138C129.899 71.809 129.862 71.8153 129.829 71.8317C129.796 71.8482 129.769 71.8741 129.751 71.9061C129.383 72.5703 129.063 73.3137 129.148 74.0883C129.216 74.7176 129.547 75.3542 130.141 75.6302C130.765 75.921 131.506 75.759 132.055 75.38C132.693 74.9384 133.087 74.2502 133.457 73.5878L133.065 73.4811C133.019 74.3496 133.065 75.5051 134.001 75.8989C135.023 76.3405 136.035 75.3818 136.625 74.6569C136.774 74.4729 136.589 74.1748 136.36 74.311C136.029 74.5078 136.022 74.9163 136.217 75.2181C136.474 75.61 136.931 75.6523 137.347 75.5033C137.595 75.415 137.819 75.2751 138.059 75.1666C138.31 75.0539 138.576 74.9759 138.848 74.9347C139.421 74.8549 140.005 74.9299 140.539 75.1518C140.743 75.2346 140.894 74.885 140.692 74.793C139.902 74.4273 139.001 74.3786 138.176 74.6569C137.777 74.7949 137.396 75.1058 136.971 75.1482C136.897 75.1623 136.819 75.1535 136.75 75.1229C136.68 75.0924 136.621 75.0415 136.581 74.977C136.528 74.8906 136.476 74.7544 136.581 74.6918L136.314 74.3459C135.851 74.9108 134.99 75.8713 134.156 75.5014C133.42 75.1758 133.453 74.149 133.486 73.4774C133.485 73.4318 133.469 73.3879 133.441 73.3521C133.413 73.3162 133.374 73.2905 133.329 73.2787C133.285 73.2669 133.239 73.2697 133.196 73.2866C133.154 73.3035 133.118 73.3337 133.094 73.3726C132.791 73.9246 132.483 74.4766 132.003 74.8961C131.567 75.2641 130.912 75.5125 130.347 75.2788C129.843 75.0672 129.569 74.5097 129.532 73.9908C129.484 73.321 129.762 72.6752 130.062 72.0919L129.723 72.0478C129.798 72.3853 129.793 72.7354 129.709 73.0706C129.625 73.4058 129.464 73.717 129.24 73.9798C128.77 74.5304 128.137 74.9171 127.433 75.0838C125.826 75.5198 124.143 75.1592 122.511 75.3248C122.327 75.3432 122.327 75.6302 122.511 75.6137L122.518 75.6174Z" fill="black"/>
<path d="M122.98 88.4458L128.34 88.4256C129.144 88.4256 129.974 88.479 130.772 88.3741C131.071 88.3429 131.361 88.2549 131.626 88.1146C131.75 88.0461 131.862 87.9599 131.961 87.8589C132.097 87.719 132.206 87.4596 132.434 87.5737C132.603 87.6583 132.749 87.8 132.914 87.8975C133.09 87.9989 133.275 88.0833 133.466 88.1496C133.861 88.2838 134.279 88.3376 134.695 88.3078C134.923 88.2931 134.925 87.9398 134.695 87.9509C134.311 87.9786 133.925 87.9285 133.56 87.8037C133.192 87.6786 132.94 87.4357 132.612 87.2646C132.285 87.0934 132.046 87.202 131.838 87.4596C131.64 87.715 131.362 87.896 131.048 87.973C130.718 88.0497 130.379 88.0856 130.04 88.0797C129.593 88.0797 129.148 88.0907 128.702 88.0944L126.022 88.1238L122.978 88.157C122.943 88.161 122.91 88.1779 122.886 88.2045C122.862 88.2312 122.849 88.2657 122.849 88.3014C122.849 88.3371 122.862 88.3716 122.886 88.3982C122.91 88.4249 122.943 88.4418 122.978 88.4458H122.98Z" fill="black"/>
<path d="M139.367 89.1101L139.522 88.6482C139.536 88.5943 139.529 88.5368 139.501 88.4882C139.473 88.4423 139.428 88.4088 139.376 88.3943C139.323 88.3806 139.268 88.3879 139.22 88.4147C139.173 88.4415 139.138 88.4857 139.122 88.5378L138.968 89.0015C138.96 89.0279 138.959 89.0555 138.962 89.0827C138.965 89.1098 138.974 89.136 138.988 89.1598C139.009 89.1948 139.039 89.2229 139.076 89.2407C139.112 89.2586 139.153 89.2652 139.194 89.2599C139.234 89.2547 139.272 89.2376 139.303 89.211C139.334 89.1844 139.356 89.1493 139.367 89.1101Z" fill="black"/>
<path d="M70.608 31.0452C69.872 34.4694 70.4498 38.0262 71.344 41.3639C71.4746 41.8497 71.609 42.3318 71.7562 42.8138C71.8834 43.2978 72.0351 43.7749 72.2106 44.2435C72.2304 44.2803 72.262 44.3093 72.3004 44.3257C72.3388 44.3421 72.3816 44.345 72.4218 44.3338C72.462 44.3227 72.4973 44.2982 72.5218 44.2645C72.5463 44.2307 72.5585 44.1895 72.5566 44.1478C72.4848 43.7302 72.345 43.3198 72.2382 42.9095C72.1315 42.4992 72.0193 42.0815 71.9107 41.6675C71.6881 40.8248 71.4691 39.9821 71.2814 39.1302C70.8942 37.4555 70.6845 35.7446 70.6558 34.026C70.6429 33.0553 70.7174 32.0854 70.8785 31.128C70.9079 30.9532 70.6466 30.8741 70.608 31.0526V31.0452Z" fill="#18C4FF"/>
<path d="M72.6927 45.009L72.7663 44.9298C72.7824 44.9157 72.7939 44.8971 72.7994 44.8765C72.8091 44.8571 72.8142 44.8356 72.8142 44.8139C72.8142 44.7922 72.8091 44.7708 72.7994 44.7514C72.7943 44.7305 72.7827 44.7118 72.7663 44.698L72.7332 44.6722C72.708 44.6577 72.6794 44.65 72.6504 44.6502H72.6062C72.5789 44.6576 72.5542 44.6722 72.5345 44.6925L72.4535 44.7661C72.4376 44.7807 72.4255 44.799 72.4185 44.8194C72.4087 44.8401 72.4042 44.8629 72.4057 44.8857C72.4044 44.9079 72.4088 44.9301 72.4185 44.9501C72.4255 44.9705 72.4376 44.9889 72.4535 45.0034L72.4885 45.031C72.5143 45.0456 72.5434 45.0532 72.5731 45.0531H72.6173C72.6461 45.0458 72.6722 45.0305 72.6927 45.009Z" fill="#18C4FF"/>
<path d="M98.2392 33.7813C99.269 33.8411 100.302 33.8116 101.327 33.693C101.544 33.6635 101.555 33.325 101.327 33.3434C100.301 33.4473 99.2703 33.4952 98.2392 33.4869C98.2002 33.4869 98.1628 33.5024 98.1352 33.53C98.1075 33.5576 98.092 33.595 98.092 33.6341C98.092 33.6731 98.1075 33.7106 98.1352 33.7382C98.1628 33.7658 98.2002 33.7813 98.2392 33.7813Z" fill="#18C4FF"/>
<path d="M78.0674 55.048C80.9493 55.56 83.8733 55.7972 86.8 55.7564C89.7394 55.7154 92.6685 55.4 95.5492 54.8143C96.7471 54.5696 98.2062 54.3359 98.9164 53.2172L98.6975 53.2761C98.9341 53.3844 99.2026 53.4006 99.4506 53.3217C99.6986 53.2428 99.9083 53.0743 100.039 52.8492C100.061 52.8111 100.067 52.7658 100.056 52.7232C100.045 52.6806 100.017 52.6442 99.979 52.622C99.941 52.5998 99.8956 52.5936 99.853 52.6048C99.8104 52.616 99.774 52.6437 99.7518 52.6818C99.6665 52.8336 99.5291 52.9493 99.365 53.0075C99.2009 53.0657 99.0212 53.0624 98.8594 52.9982C98.8223 52.9777 98.7787 52.9721 98.7376 52.9827C98.6965 52.9933 98.6611 53.0193 98.6386 53.0553C98.0167 54.0507 96.6955 54.2586 95.6394 54.4776C94.2287 54.7708 92.8064 54.9965 91.3724 55.1547C88.5672 55.4699 85.7394 55.5315 82.9231 55.3387C81.3242 55.2283 79.7307 55.048 78.1502 54.7867C77.9662 54.7554 77.8963 55.0241 78.0747 55.0572L78.0674 55.048Z" fill="#18C4FF"/>
<path d="M76.9302 54.4647C76.9072 54.4918 76.8875 54.5214 76.8713 54.553C76.8552 54.5859 76.8429 54.6205 76.8345 54.6561C76.817 54.728 76.817 54.8031 76.8345 54.875C76.8473 54.9159 76.874 54.9511 76.91 54.9744C76.9485 54.9963 76.9941 55.0023 77.0369 54.991C77.0776 54.9787 77.1123 54.9518 77.1344 54.9155C77.1457 54.8966 77.153 54.8756 77.1558 54.8538C77.1586 54.8319 77.157 54.8097 77.151 54.7886C77.1435 54.7676 77.138 54.7461 77.1344 54.7242V54.7683C77.1326 54.742 77.1326 54.7155 77.1344 54.6892V54.7315C77.1379 54.7054 77.1453 54.6799 77.1565 54.6561L77.14 54.691C77.1468 54.6763 77.1548 54.6622 77.1639 54.6487C77.1743 54.6314 77.1806 54.6119 77.1823 54.5917C77.1868 54.5717 77.1868 54.5509 77.1823 54.531C77.1724 54.5006 77.1539 54.4737 77.1289 54.4537C77.1032 54.4321 77.0705 54.4203 77.0369 54.4206C77.017 54.4201 76.9973 54.4238 76.9789 54.4314C76.9606 54.439 76.944 54.4504 76.9302 54.4647Z" fill="#18C4FF"/>
<path d="M76.0415 54.7094L76.1446 54.7591C76.1617 54.7698 76.1814 54.7756 76.2016 54.7757C76.2215 54.7812 76.2424 54.7812 76.2623 54.7757C76.2815 54.771 76.2993 54.7615 76.3138 54.7481C76.3299 54.7372 76.3431 54.7227 76.3525 54.7058L76.3672 54.6708C76.3746 54.6443 76.3746 54.6163 76.3672 54.5898L76.3525 54.553C76.3389 54.5308 76.3199 54.5125 76.2973 54.4997L76.1961 54.4463C76.1787 54.4359 76.1592 54.4296 76.139 54.4279C76.1192 54.4224 76.0982 54.4224 76.0783 54.4279C76.0586 54.4319 76.0403 54.4408 76.025 54.4537C76.0084 54.4647 75.995 54.48 75.9863 54.4978L75.9716 54.5346C75.9642 54.5611 75.9642 54.5891 75.9716 54.6156L75.9863 54.6524C75.9998 54.6751 76.0188 54.6941 76.0415 54.7076V54.7094Z" fill="#18C4FF"/>
<path d="M78.1703 55.1639C77.9698 55.9452 77.931 56.7591 78.0562 57.5559C78.0663 57.5923 78.0903 57.6232 78.1231 57.6418C78.1558 57.6604 78.1947 57.6653 78.231 57.6553C78.2674 57.6453 78.2983 57.6212 78.3169 57.5885C78.3356 57.5557 78.3404 57.5168 78.3304 57.4805C78.2242 56.7351 78.2617 55.9762 78.4408 55.2449C78.4506 55.209 78.4457 55.1707 78.4272 55.1385C78.4088 55.1062 78.3782 55.0826 78.3424 55.0728C78.3065 55.0631 78.2682 55.068 78.236 55.0864C78.2037 55.1049 78.1801 55.1354 78.1703 55.1713V55.1639Z" fill="#18C4FF"/>
<path d="M81.464 55.462C81.3856 55.9374 81.353 56.4192 81.3665 56.9009C81.3665 57.1438 81.3941 57.3848 81.4254 57.624C81.4475 57.7878 81.4971 58.0435 81.7198 58.0178C81.9038 57.9957 81.9038 57.6921 81.7198 57.716C81.7455 57.7344 81.7529 57.7307 81.7382 57.7031V57.6755C81.728 57.6214 81.7206 57.5667 81.7161 57.5118C81.7032 57.4216 81.694 57.3278 81.6867 57.2413C81.6701 57.0573 81.6609 56.8641 81.6591 56.6746C81.6556 56.294 81.6827 55.9137 81.74 55.5374C81.7658 55.3534 81.4971 55.2835 81.4695 55.462H81.464Z" fill="#18C4FF"/>
<path d="M85.0447 55.6718C84.9059 56.5335 84.9259 57.4134 85.1036 58.268C85.1422 58.452 85.4219 58.3747 85.3851 58.1907C85.2266 57.3861 85.2067 56.5604 85.3262 55.749C85.3556 55.565 85.0723 55.4859 85.0447 55.6718Z" fill="#18C4FF"/>
<path d="M88.7707 55.8098C88.8706 56.7659 88.8842 57.729 88.8112 58.6875C88.7983 58.8807 89.1 58.8807 89.1148 58.6875C89.181 57.7284 89.1607 56.7653 89.054 55.8098C89.0356 55.6258 88.7504 55.6258 88.7707 55.8098Z" fill="#18C4FF"/>
<path d="M92.4507 55.4289C92.6881 56.2913 92.7413 57.1941 92.6071 58.0785C92.5758 58.2827 92.8886 58.371 92.9199 58.165C93.0644 57.225 93.0016 56.2648 92.7359 55.3516C92.7256 55.3148 92.7012 55.2835 92.6679 55.2647C92.6346 55.2459 92.5952 55.2411 92.5583 55.2513C92.5215 55.2616 92.4902 55.286 92.4714 55.3193C92.4526 55.3526 92.4478 55.392 92.458 55.4289H92.4507Z" fill="#18C4FF"/>
<path d="M95.632 54.6082C95.8929 55.5496 96.0004 56.527 95.9503 57.5026C95.9392 57.705 96.2539 57.705 96.2649 57.5026C96.3135 56.4989 96.189 55.4943 95.8969 54.5328C95.892 54.5148 95.8835 54.498 95.8721 54.4832C95.8606 54.4685 95.8463 54.4561 95.8301 54.4469C95.8139 54.4377 95.796 54.4318 95.7775 54.4294C95.7589 54.4271 95.7401 54.4285 95.7221 54.4334C95.7041 54.4384 95.6873 54.4468 95.6725 54.4583C95.6578 54.4698 95.6455 54.484 95.6362 54.5003C95.627 54.5165 95.6211 54.5344 95.6188 54.5529C95.6165 54.5714 95.6178 54.5902 95.6228 54.6082H95.632Z" fill="#18C4FF"/>
<path d="M98.484 53.6809C98.5757 54.0953 98.6463 54.5142 98.6956 54.9358C98.7214 55.1418 98.7416 55.3479 98.7564 55.554C98.7564 55.6497 98.7748 55.7472 98.7729 55.8447C98.7727 55.8695 98.7696 55.8942 98.7637 55.9183C98.7508 55.9717 98.7361 55.9551 98.7729 55.9533C98.5613 55.9643 98.5613 56.2937 98.7729 56.2808C98.8629 56.2715 98.9459 56.2283 99.005 56.1599C99.0642 56.0915 99.095 56.0031 99.0912 55.9128C99.1004 55.6634 99.0838 55.4136 99.0416 55.1676C98.9801 54.6394 98.8842 54.1157 98.7545 53.5999C98.7122 53.4159 98.4454 53.4987 98.484 53.6754V53.6809Z" fill="#18C4FF"/>
</svg>
