<svg width="327" height="201" viewBox="0 0 327 201" fill="none" xmlns="http://www.w3.org/2000/svg">
<g filter="url(#filter0_d_85_10)">
<rect x="12" y="11" width="303" height="177.01" rx="31" fill="white"/>
</g>
<path d="M224.54 11C223.854 19.2323 229.611 34.1892 258.12 28.1579C286.628 22.1266 298.21 31.0176 294.783 44.016C291.7 52.335 294.715 67.6211 315 67.4131" stroke="black"/>
<path d="M235.182 11C234.577 17.0421 239.657 28.0196 264.811 23.593C289.966 19.1663 300.185 25.6918 297.162 35.2319C294.441 41.3376 297.101 52.5568 315 52.4041" stroke="black"/>
<path d="M225.773 16.5419C225.856 15.5889 227.071 15.2408 227.588 16.0218L230.094 19.8056C230.253 20.0461 230.51 20.2009 230.797 20.2294L235.282 20.6748C236.177 20.7637 236.468 21.9257 235.735 22.4809L232.059 25.2648C231.824 25.4428 231.674 25.7141 231.648 26.0076L231.247 30.6243C231.164 31.5772 229.949 31.9254 229.432 31.1443L226.926 27.3605C226.767 27.12 226.51 26.9652 226.223 26.9367L221.738 26.4913C220.843 26.4025 220.552 25.2404 221.285 24.6852L224.961 21.9013C225.196 21.7233 225.346 21.452 225.372 21.1586L225.773 16.5419Z" fill="#3D6EB7"/>
<path d="M298.542 37.7265C299.232 37.1147 300.296 37.7715 300.145 38.7157L299.408 43.3256C299.361 43.619 299.439 43.923 299.622 44.1578L302.477 47.8364C303.05 48.575 302.475 49.6417 301.59 49.48L297.183 48.6751C296.901 48.6237 296.616 48.7035 296.402 48.8935L293.037 51.8805C292.347 52.4922 291.283 51.8354 291.434 50.8913L292.171 46.2813C292.218 45.988 292.14 45.684 291.957 45.4491L289.102 41.7706C288.529 41.032 289.105 39.9653 289.989 40.1269L294.396 40.9319C294.678 40.9833 294.963 40.9035 295.177 40.7134L298.542 37.7265Z" fill="#3DB75D"/>
<path d="M102.46 188.01C103.146 179.777 97.389 164.82 68.8803 170.852C40.3717 176.883 28.7899 167.992 32.2165 154.994C35.3003 146.675 32.285 131.388 12 131.596" stroke="black"/>
<path d="M91.818 188.01C92.4227 181.967 87.3433 170.99 62.1886 175.417C37.0339 179.843 26.8148 173.318 29.8382 163.778C32.5592 157.672 29.8986 146.453 12.0001 146.605" stroke="black"/>
<path d="M28.4574 161.283C27.7681 161.895 26.7042 161.238 26.8551 160.294L27.5915 155.684C27.6384 155.391 27.5604 155.087 27.3781 154.852L24.5227 151.173C23.9493 150.435 24.5253 149.368 25.4101 149.53L29.8171 150.335C30.0985 150.386 30.3836 150.306 30.5978 150.116L33.9631 147.129C34.6524 146.517 35.7163 147.174 35.5654 148.118L34.829 152.728C34.7821 153.022 34.8601 153.326 35.0424 153.561L37.8978 157.239C38.4712 157.978 37.8952 159.044 37.0104 158.883L32.6034 158.078C32.322 158.026 32.0369 158.106 31.8227 158.296L28.4574 161.283Z" fill="#ECE51F"/>
<path d="M101.227 182.468C101.144 183.421 99.9291 183.769 99.4118 182.988L96.9058 179.204C96.7465 178.964 96.4899 178.809 96.2031 178.78L91.7178 178.335C90.8232 178.246 90.532 177.084 91.2652 176.529L94.9413 173.745C95.1763 173.567 95.3262 173.296 95.3517 173.002L95.7527 168.385C95.8355 167.432 97.0506 167.084 97.5679 167.865L100.074 171.649C100.233 171.89 100.49 172.044 100.777 172.073L105.262 172.518C106.156 172.607 106.448 173.769 105.715 174.324L102.038 177.108C101.803 177.286 101.653 177.558 101.628 177.851L101.227 182.468Z" fill="#8A3DB7"/>
<defs>
<filter id="filter0_d_85_10" x="0.7" y="0.7" width="325.6" height="199.61" filterUnits="userSpaceOnUse" color-interpolation-filters="sRGB">
<feFlood flood-opacity="0" result="BackgroundImageFix"/>
<feColorMatrix in="SourceAlpha" type="matrix" values="0 0 0 0 0 0 0 0 0 0 0 0 0 0 0 0 0 0 127 0" result="hardAlpha"/>
<feOffset dy="1"/>
<feGaussianBlur stdDeviation="5.65"/>
<feComposite in2="hardAlpha" operator="out"/>
<feColorMatrix type="matrix" values="0 0 0 0 0 0 0 0 0 0 0 0 0 0 0 0 0 0 0.25 0"/>
<feBlend mode="normal" in2="BackgroundImageFix" result="effect1_dropShadow_85_10"/>
<feBlend mode="normal" in="SourceGraphic" in2="effect1_dropShadow_85_10" result="shape"/>
</filter>
</defs>
</svg>
