<svg width="17" height="17" viewBox="0 0 17 17" fill="none" xmlns="http://www.w3.org/2000/svg">
<mask id="mask0_79_250" style="mask-type:luminance" maskUnits="userSpaceOnUse" x="1" y="1" width="15" height="15">
<path d="M15.7482 1H1.21692V15.5313H15.7482V1Z" fill="white"/>
</mask>
<g mask="url(#mask0_79_250)">
<path d="M10.193 7.93365H5.89989V6.23483H10.193C10.4437 6.23483 10.6181 6.27855 10.7056 6.35487C10.7931 6.4312 10.8473 6.57277 10.8473 6.77958V7.38957C10.8473 7.60746 10.7931 7.74903 10.7056 7.82536C10.6181 7.90169 10.4437 7.93432 10.193 7.93432V7.93365ZM10.4875 4.63322H4.07922V11.8982H5.89989V9.53462H9.2552L10.8473 11.8982H12.8861L11.1307 9.52354C11.7779 9.42763 12.0685 9.2293 12.3081 8.90245C12.5478 8.57561 12.668 8.05304 12.668 7.35564V6.8109C12.668 6.39728 12.6242 6.07043 12.5478 5.81992C12.4714 5.5694 12.3408 5.35151 12.1553 5.15578C11.9594 4.97051 11.7413 4.84003 11.4794 4.75261C11.2176 4.67628 10.8904 4.63257 10.4875 4.63257V4.63322Z" fill="white"/>
<path d="M23.014 0.99955C23.014 5.01226 19.7611 8.26522 15.7483 8.26522C14.9325 8.26522 14.1481 8.13075 13.416 7.88278C13.4317 7.71012 13.4386 7.53359 13.4386 7.35545V6.81071C13.4386 6.34817 13.3903 5.94046 13.2849 5.59492C13.1712 5.2223 12.9764 4.90163 12.7147 4.62555L12.7002 4.61023L12.6849 4.59572C12.4061 4.33207 12.0901 4.14387 11.7235 4.02147L11.7094 4.01677L11.6951 4.01261C11.3461 3.91088 10.9432 3.86178 10.4875 3.86178H9.71689V3.86243H9.06844C8.69143 2.98392 8.48267 2.01612 8.48267 0.99955C8.48267 -3.01317 11.7356 -6.26611 15.7483 -6.26611C19.7611 -6.26611 23.014 -3.01317 23.014 0.99955Z" fill="white"/>
</g>
<path d="M15.6383 1.11011H1.32715V15.4213H15.6383V1.11011Z" stroke="white" stroke-width="2"/>
</svg>
