<svg width="15" height="13" viewBox="0 0 15 13" fill="none" xmlns="http://www.w3.org/2000/svg">
<path d="M14.2112 1.53623C14.1758 2.03066 13.8938 3.75996 13.6112 5.6315L12.7285 11.1741C12.7285 11.1741 12.6577 11.9859 12.0577 12.1269C11.4577 12.2679 10.4694 11.6325 10.2924 11.4915C10.1514 11.3859 7.64501 9.79697 6.72695 9.02052C6.47973 8.80871 6.19772 8.38508 6.76235 7.89064C8.03324 6.72597 9.55134 5.27807 10.4688 4.36061C10.8924 3.93698 11.316 2.94872 9.55073 4.1488L4.5734 7.50242C4.5734 7.50242 4.00877 7.85524 2.9497 7.53782C1.89063 7.22041 0.65515 6.79678 0.65515 6.79678C0.65515 6.79678 -0.192105 6.26755 1.25519 5.70231L9.48053 2.31328C10.2924 1.96046 13.046 0.830586 13.046 0.830586C13.046 0.830586 14.3168 0.336151 14.2106 1.53684" fill="white"/>
</svg>
