<svg width="16" height="12" viewBox="0 0 16 12" fill="none" xmlns="http://www.w3.org/2000/svg">
<path d="M13.1971 1.12634C13.3611 1.14417 13.5607 1.1601 13.7198 1.20249C14.249 1.30936 14.7148 1.67465 14.9612 2.15286C15.1748 2.59785 15.2223 3.0898 15.2845 3.57283C15.3718 4.42772 15.3994 5.2558 15.4086 6.11243C15.3847 6.93298 15.3583 7.64921 15.2843 8.46531C15.231 8.88951 15.1809 9.31953 15.0326 9.72324C14.8403 10.2022 14.438 10.591 13.9521 10.7649C13.7491 10.8261 13.5962 10.8449 13.3978 10.8904C11.8925 11.0465 10.345 11.0793 8.83148 11.1055C7.3371 11.1244 5.99291 11.08 4.57127 11.012C4.07424 10.9882 2.81634 10.9307 2.38889 10.781C2.03467 10.6569 1.71325 10.433 1.49322 10.127C1.2443 9.80181 1.12875 9.39369 1.07962 9.00538C0.825464 6.99557 0.792578 5.04505 1.08579 3.04082C1.13861 2.67966 1.22525 2.31845 1.42337 2.00805C1.64082 1.6658 1.97469 1.39922 2.35675 1.26349C3.08209 1.0313 4.31011 0.976447 5.31571 0.959451C5.86074 0.950255 6.39914 0.942246 6.93583 0.936705C8.96344 0.915844 11.1887 0.907905 13.1971 1.12634Z" fill="white"/>
<path d="M6.69995 3.83814L6.70135 8.17627L10.4555 6.00648L6.69995 3.83814Z" fill="#303030"/>
</svg>
